<?xml version="1.0" encoding="utf-8" standalone="no"?>
<!DOCTYPE svg PUBLIC "-//W3C//DTD SVG 1.1//EN"
  "http://www.w3.org/Graphics/SVG/1.1/DTD/svg11.dtd">
<svg xmlns:xlink="http://www.w3.org/1999/xlink" width="566.41275pt" height="568.89375pt" viewBox="0 0 566.41275 568.89375" xmlns="http://www.w3.org/2000/svg" version="1.1">
 <metadata>
  <rdf:RDF xmlns:dc="http://purl.org/dc/elements/1.1/" xmlns:cc="http://creativecommons.org/ns#" xmlns:rdf="http://www.w3.org/1999/02/22-rdf-syntax-ns#">
   <cc:Work>
    <dc:type rdf:resource="http://purl.org/dc/dcmitype/StillImage"/>
    <dc:date>2025-05-25T00:33:08.319461</dc:date>
    <dc:format>image/svg+xml</dc:format>
    <dc:creator>
     <cc:Agent>
      <dc:title>Matplotlib v3.7.2, https://matplotlib.org/</dc:title>
     </cc:Agent>
    </dc:creator>
   </cc:Work>
  </rdf:RDF>
 </metadata>
 <defs>
  <style type="text/css">*{stroke-linejoin: round; stroke-linecap: butt}</style>
 </defs>
 <g id="figure_1">
  <g id="patch_1">
   <path d="M 0 568.89375 
L 566.41275 568.89375 
L 566.41275 0 
L 0 0 
z
" style="fill: #ffffff"/>
  </g>
  <g id="axes_1">
   <g id="patch_2">
    <path d="M 61.56875 174.813333 
L 559.21275 174.813333 
L 559.21275 7.2 
L 61.56875 7.2 
z
" style="fill: #ffffff"/>
   </g>
   <g id="matplotlib.axis_1">
    <g id="xtick_1">
     <g id="line2d_1">
      <path d="M 94.470833 174.813333 
L 94.470833 7.2 
" clip-path="url(#p3d36e21510)" style="fill: none; stroke-dasharray: 2.96,1.28; stroke-dashoffset: 0; stroke: #808080; stroke-opacity: 0.6; stroke-width: 0.8"/>
     </g>
     <g id="line2d_2">
      <defs>
       <path id="m8819801ad9" d="M 0 0 
L 0 3.5 
" style="stroke: #000000; stroke-width: 0.8"/>
      </defs>
      <g>
       <use xlink:href="#m8819801ad9" x="94.470833" y="174.813333" style="stroke: #000000; stroke-width: 0.8"/>
      </g>
     </g>
     <g id="text_1">
      <!-- 1980 -->
      <g style="fill: #ffffff" transform="translate(79.200833 190.931458) scale(0.12 -0.12)">
       <defs>
        <path id="DejaVuSans-31" d="M 794 531 
L 1825 531 
L 1825 4091 
L 703 3866 
L 703 4441 
L 1819 4666 
L 2450 4666 
L 2450 531 
L 3481 531 
L 3481 0 
L 794 0 
L 794 531 
z
" transform="scale(0.015625)"/>
        <path id="DejaVuSans-39" d="M 703 97 
L 703 672 
Q 941 559 1184 500 
Q 1428 441 1663 441 
Q 2288 441 2617 861 
Q 2947 1281 2994 2138 
Q 2813 1869 2534 1725 
Q 2256 1581 1919 1581 
Q 1219 1581 811 2004 
Q 403 2428 403 3163 
Q 403 3881 828 4315 
Q 1253 4750 1959 4750 
Q 2769 4750 3195 4129 
Q 3622 3509 3622 2328 
Q 3622 1225 3098 567 
Q 2575 -91 1691 -91 
Q 1453 -91 1209 -44 
Q 966 3 703 97 
z
M 1959 2075 
Q 2384 2075 2632 2365 
Q 2881 2656 2881 3163 
Q 2881 3666 2632 3958 
Q 2384 4250 1959 4250 
Q 1534 4250 1286 3958 
Q 1038 3666 1038 3163 
Q 1038 2656 1286 2365 
Q 1534 2075 1959 2075 
z
" transform="scale(0.015625)"/>
        <path id="DejaVuSans-38" d="M 2034 2216 
Q 1584 2216 1326 1975 
Q 1069 1734 1069 1313 
Q 1069 891 1326 650 
Q 1584 409 2034 409 
Q 2484 409 2743 651 
Q 3003 894 3003 1313 
Q 3003 1734 2745 1975 
Q 2488 2216 2034 2216 
z
M 1403 2484 
Q 997 2584 770 2862 
Q 544 3141 544 3541 
Q 544 4100 942 4425 
Q 1341 4750 2034 4750 
Q 2731 4750 3128 4425 
Q 3525 4100 3525 3541 
Q 3525 3141 3298 2862 
Q 3072 2584 2669 2484 
Q 3125 2378 3379 2068 
Q 3634 1759 3634 1313 
Q 3634 634 3220 271 
Q 2806 -91 2034 -91 
Q 1263 -91 848 271 
Q 434 634 434 1313 
Q 434 1759 690 2068 
Q 947 2378 1403 2484 
z
M 1172 3481 
Q 1172 3119 1398 2916 
Q 1625 2713 2034 2713 
Q 2441 2713 2670 2916 
Q 2900 3119 2900 3481 
Q 2900 3844 2670 4047 
Q 2441 4250 2034 4250 
Q 1625 4250 1398 4047 
Q 1172 3844 1172 3481 
z
" transform="scale(0.015625)"/>
        <path id="DejaVuSans-30" d="M 2034 4250 
Q 1547 4250 1301 3770 
Q 1056 3291 1056 2328 
Q 1056 1369 1301 889 
Q 1547 409 2034 409 
Q 2525 409 2770 889 
Q 3016 1369 3016 2328 
Q 3016 3291 2770 3770 
Q 2525 4250 2034 4250 
z
M 2034 4750 
Q 2819 4750 3233 4129 
Q 3647 3509 3647 2328 
Q 3647 1150 3233 529 
Q 2819 -91 2034 -91 
Q 1250 -91 836 529 
Q 422 1150 422 2328 
Q 422 3509 836 4129 
Q 1250 4750 2034 4750 
z
" transform="scale(0.015625)"/>
       </defs>
       <use xlink:href="#DejaVuSans-31"/>
       <use xlink:href="#DejaVuSans-39" x="63.623047"/>
       <use xlink:href="#DejaVuSans-38" x="127.246094"/>
       <use xlink:href="#DejaVuSans-30" x="190.869141"/>
      </g>
     </g>
    </g>
    <g id="xtick_2">
     <g id="line2d_3">
      <path d="M 197.289841 174.813333 
L 197.289841 7.2 
" clip-path="url(#p3d36e21510)" style="fill: none; stroke-dasharray: 2.96,1.28; stroke-dashoffset: 0; stroke: #808080; stroke-opacity: 0.6; stroke-width: 0.8"/>
     </g>
     <g id="line2d_4">
      <g>
       <use xlink:href="#m8819801ad9" x="197.289841" y="174.813333" style="stroke: #000000; stroke-width: 0.8"/>
      </g>
     </g>
     <g id="text_2">
      <!-- 1990 -->
      <g style="fill: #ffffff" transform="translate(182.019841 190.931458) scale(0.12 -0.12)">
       <use xlink:href="#DejaVuSans-31"/>
       <use xlink:href="#DejaVuSans-39" x="63.623047"/>
       <use xlink:href="#DejaVuSans-39" x="127.246094"/>
       <use xlink:href="#DejaVuSans-30" x="190.869141"/>
      </g>
     </g>
    </g>
    <g id="xtick_3">
     <g id="line2d_5">
      <path d="M 300.108849 174.813333 
L 300.108849 7.2 
" clip-path="url(#p3d36e21510)" style="fill: none; stroke-dasharray: 2.96,1.28; stroke-dashoffset: 0; stroke: #808080; stroke-opacity: 0.6; stroke-width: 0.8"/>
     </g>
     <g id="line2d_6">
      <g>
       <use xlink:href="#m8819801ad9" x="300.108849" y="174.813333" style="stroke: #000000; stroke-width: 0.8"/>
      </g>
     </g>
     <g id="text_3">
      <!-- 2000 -->
      <g style="fill: #ffffff" transform="translate(284.838849 190.931458) scale(0.12 -0.12)">
       <defs>
        <path id="DejaVuSans-32" d="M 1228 531 
L 3431 531 
L 3431 0 
L 469 0 
L 469 531 
Q 828 903 1448 1529 
Q 2069 2156 2228 2338 
Q 2531 2678 2651 2914 
Q 2772 3150 2772 3378 
Q 2772 3750 2511 3984 
Q 2250 4219 1831 4219 
Q 1534 4219 1204 4116 
Q 875 4013 500 3803 
L 500 4441 
Q 881 4594 1212 4672 
Q 1544 4750 1819 4750 
Q 2544 4750 2975 4387 
Q 3406 4025 3406 3419 
Q 3406 3131 3298 2873 
Q 3191 2616 2906 2266 
Q 2828 2175 2409 1742 
Q 1991 1309 1228 531 
z
" transform="scale(0.015625)"/>
       </defs>
       <use xlink:href="#DejaVuSans-32"/>
       <use xlink:href="#DejaVuSans-30" x="63.623047"/>
       <use xlink:href="#DejaVuSans-30" x="127.246094"/>
       <use xlink:href="#DejaVuSans-30" x="190.869141"/>
      </g>
     </g>
    </g>
    <g id="xtick_4">
     <g id="line2d_7">
      <path d="M 402.927857 174.813333 
L 402.927857 7.2 
" clip-path="url(#p3d36e21510)" style="fill: none; stroke-dasharray: 2.96,1.28; stroke-dashoffset: 0; stroke: #808080; stroke-opacity: 0.6; stroke-width: 0.8"/>
     </g>
     <g id="line2d_8">
      <g>
       <use xlink:href="#m8819801ad9" x="402.927857" y="174.813333" style="stroke: #000000; stroke-width: 0.8"/>
      </g>
     </g>
     <g id="text_4">
      <!-- 2010 -->
      <g style="fill: #ffffff" transform="translate(387.657857 190.931458) scale(0.12 -0.12)">
       <use xlink:href="#DejaVuSans-32"/>
       <use xlink:href="#DejaVuSans-30" x="63.623047"/>
       <use xlink:href="#DejaVuSans-31" x="127.246094"/>
       <use xlink:href="#DejaVuSans-30" x="190.869141"/>
      </g>
     </g>
    </g>
    <g id="xtick_5">
     <g id="line2d_9">
      <path d="M 505.746866 174.813333 
L 505.746866 7.2 
" clip-path="url(#p3d36e21510)" style="fill: none; stroke-dasharray: 2.96,1.28; stroke-dashoffset: 0; stroke: #808080; stroke-opacity: 0.6; stroke-width: 0.8"/>
     </g>
     <g id="line2d_10">
      <g>
       <use xlink:href="#m8819801ad9" x="505.746866" y="174.813333" style="stroke: #000000; stroke-width: 0.8"/>
      </g>
     </g>
     <g id="text_5">
      <!-- 2020 -->
      <g style="fill: #ffffff" transform="translate(490.476866 190.931458) scale(0.12 -0.12)">
       <use xlink:href="#DejaVuSans-32"/>
       <use xlink:href="#DejaVuSans-30" x="63.623047"/>
       <use xlink:href="#DejaVuSans-32" x="127.246094"/>
       <use xlink:href="#DejaVuSans-30" x="190.869141"/>
      </g>
     </g>
    </g>
   </g>
   <g id="matplotlib.axis_2">
    <g id="ytick_1">
     <g id="line2d_11">
      <path d="M 61.56875 167.66174 
L 559.21275 167.66174 
" clip-path="url(#p3d36e21510)" style="fill: none; stroke-dasharray: 2.96,1.28; stroke-dashoffset: 0; stroke: #808080; stroke-opacity: 0.6; stroke-width: 0.8"/>
     </g>
     <g id="line2d_12">
      <defs>
       <path id="m4fe9f221ff" d="M 0 0 
L -3.5 0 
" style="stroke: #000000; stroke-width: 0.8"/>
      </defs>
      <g>
       <use xlink:href="#m4fe9f221ff" x="61.56875" y="167.66174" style="stroke: #000000; stroke-width: 0.8"/>
      </g>
     </g>
     <g id="text_6">
      <!-- 22.0 -->
      <g transform="translate(27.85 172.220803) scale(0.12 -0.12)">
       <defs>
        <path id="DejaVuSans-2e" d="M 684 794 
L 1344 794 
L 1344 0 
L 684 0 
L 684 794 
z
" transform="scale(0.015625)"/>
       </defs>
       <use xlink:href="#DejaVuSans-32"/>
       <use xlink:href="#DejaVuSans-32" x="63.623047"/>
       <use xlink:href="#DejaVuSans-2e" x="127.246094"/>
       <use xlink:href="#DejaVuSans-30" x="159.033203"/>
      </g>
     </g>
    </g>
    <g id="ytick_2">
     <g id="line2d_13">
      <path d="M 61.56875 140.414773 
L 559.21275 140.414773 
" clip-path="url(#p3d36e21510)" style="fill: none; stroke-dasharray: 2.96,1.28; stroke-dashoffset: 0; stroke: #808080; stroke-opacity: 0.6; stroke-width: 0.8"/>
     </g>
     <g id="line2d_14">
      <g>
       <use xlink:href="#m4fe9f221ff" x="61.56875" y="140.414773" style="stroke: #000000; stroke-width: 0.8"/>
      </g>
     </g>
     <g id="text_7">
      <!-- 22.5 -->
      <g transform="translate(27.85 144.973835) scale(0.12 -0.12)">
       <defs>
        <path id="DejaVuSans-35" d="M 691 4666 
L 3169 4666 
L 3169 4134 
L 1269 4134 
L 1269 2991 
Q 1406 3038 1543 3061 
Q 1681 3084 1819 3084 
Q 2600 3084 3056 2656 
Q 3513 2228 3513 1497 
Q 3513 744 3044 326 
Q 2575 -91 1722 -91 
Q 1428 -91 1123 -41 
Q 819 9 494 109 
L 494 744 
Q 775 591 1075 516 
Q 1375 441 1709 441 
Q 2250 441 2565 725 
Q 2881 1009 2881 1497 
Q 2881 1984 2565 2268 
Q 2250 2553 1709 2553 
Q 1456 2553 1204 2497 
Q 953 2441 691 2322 
L 691 4666 
z
" transform="scale(0.015625)"/>
       </defs>
       <use xlink:href="#DejaVuSans-32"/>
       <use xlink:href="#DejaVuSans-32" x="63.623047"/>
       <use xlink:href="#DejaVuSans-2e" x="127.246094"/>
       <use xlink:href="#DejaVuSans-35" x="159.033203"/>
      </g>
     </g>
    </g>
    <g id="ytick_3">
     <g id="line2d_15">
      <path d="M 61.56875 113.167806 
L 559.21275 113.167806 
" clip-path="url(#p3d36e21510)" style="fill: none; stroke-dasharray: 2.96,1.28; stroke-dashoffset: 0; stroke: #808080; stroke-opacity: 0.6; stroke-width: 0.8"/>
     </g>
     <g id="line2d_16">
      <g>
       <use xlink:href="#m4fe9f221ff" x="61.56875" y="113.167806" style="stroke: #000000; stroke-width: 0.8"/>
      </g>
     </g>
     <g id="text_8">
      <!-- 23.0 -->
      <g transform="translate(27.85 117.726868) scale(0.12 -0.12)">
       <defs>
        <path id="DejaVuSans-33" d="M 2597 2516 
Q 3050 2419 3304 2112 
Q 3559 1806 3559 1356 
Q 3559 666 3084 287 
Q 2609 -91 1734 -91 
Q 1441 -91 1130 -33 
Q 819 25 488 141 
L 488 750 
Q 750 597 1062 519 
Q 1375 441 1716 441 
Q 2309 441 2620 675 
Q 2931 909 2931 1356 
Q 2931 1769 2642 2001 
Q 2353 2234 1838 2234 
L 1294 2234 
L 1294 2753 
L 1863 2753 
Q 2328 2753 2575 2939 
Q 2822 3125 2822 3475 
Q 2822 3834 2567 4026 
Q 2313 4219 1838 4219 
Q 1578 4219 1281 4162 
Q 984 4106 628 3988 
L 628 4550 
Q 988 4650 1302 4700 
Q 1616 4750 1894 4750 
Q 2613 4750 3031 4423 
Q 3450 4097 3450 3541 
Q 3450 3153 3228 2886 
Q 3006 2619 2597 2516 
z
" transform="scale(0.015625)"/>
       </defs>
       <use xlink:href="#DejaVuSans-32"/>
       <use xlink:href="#DejaVuSans-33" x="63.623047"/>
       <use xlink:href="#DejaVuSans-2e" x="127.246094"/>
       <use xlink:href="#DejaVuSans-30" x="159.033203"/>
      </g>
     </g>
    </g>
    <g id="ytick_4">
     <g id="line2d_17">
      <path d="M 61.56875 85.920839 
L 559.21275 85.920839 
" clip-path="url(#p3d36e21510)" style="fill: none; stroke-dasharray: 2.96,1.28; stroke-dashoffset: 0; stroke: #808080; stroke-opacity: 0.6; stroke-width: 0.8"/>
     </g>
     <g id="line2d_18">
      <g>
       <use xlink:href="#m4fe9f221ff" x="61.56875" y="85.920839" style="stroke: #000000; stroke-width: 0.8"/>
      </g>
     </g>
     <g id="text_9">
      <!-- 23.5 -->
      <g transform="translate(27.85 90.479901) scale(0.12 -0.12)">
       <use xlink:href="#DejaVuSans-32"/>
       <use xlink:href="#DejaVuSans-33" x="63.623047"/>
       <use xlink:href="#DejaVuSans-2e" x="127.246094"/>
       <use xlink:href="#DejaVuSans-35" x="159.033203"/>
      </g>
     </g>
    </g>
    <g id="ytick_5">
     <g id="line2d_19">
      <path d="M 61.56875 58.673871 
L 559.21275 58.673871 
" clip-path="url(#p3d36e21510)" style="fill: none; stroke-dasharray: 2.96,1.28; stroke-dashoffset: 0; stroke: #808080; stroke-opacity: 0.6; stroke-width: 0.8"/>
     </g>
     <g id="line2d_20">
      <g>
       <use xlink:href="#m4fe9f221ff" x="61.56875" y="58.673871" style="stroke: #000000; stroke-width: 0.8"/>
      </g>
     </g>
     <g id="text_10">
      <!-- 24.0 -->
      <g transform="translate(27.85 63.232934) scale(0.12 -0.12)">
       <defs>
        <path id="DejaVuSans-34" d="M 2419 4116 
L 825 1625 
L 2419 1625 
L 2419 4116 
z
M 2253 4666 
L 3047 4666 
L 3047 1625 
L 3713 1625 
L 3713 1100 
L 3047 1100 
L 3047 0 
L 2419 0 
L 2419 1100 
L 313 1100 
L 313 1709 
L 2253 4666 
z
" transform="scale(0.015625)"/>
       </defs>
       <use xlink:href="#DejaVuSans-32"/>
       <use xlink:href="#DejaVuSans-34" x="63.623047"/>
       <use xlink:href="#DejaVuSans-2e" x="127.246094"/>
       <use xlink:href="#DejaVuSans-30" x="159.033203"/>
      </g>
     </g>
    </g>
    <g id="ytick_6">
     <g id="line2d_21">
      <path d="M 61.56875 31.426904 
L 559.21275 31.426904 
" clip-path="url(#p3d36e21510)" style="fill: none; stroke-dasharray: 2.96,1.28; stroke-dashoffset: 0; stroke: #808080; stroke-opacity: 0.6; stroke-width: 0.8"/>
     </g>
     <g id="line2d_22">
      <g>
       <use xlink:href="#m4fe9f221ff" x="61.56875" y="31.426904" style="stroke: #000000; stroke-width: 0.8"/>
      </g>
     </g>
     <g id="text_11">
      <!-- 24.5 -->
      <g transform="translate(27.85 35.985967) scale(0.12 -0.12)">
       <use xlink:href="#DejaVuSans-32"/>
       <use xlink:href="#DejaVuSans-34" x="63.623047"/>
       <use xlink:href="#DejaVuSans-2e" x="127.246094"/>
       <use xlink:href="#DejaVuSans-35" x="159.033203"/>
      </g>
     </g>
    </g>
    <g id="text_12">
     <!-- $P95$ $T_{W,max}$ [$^\circ$C] -->
     <g transform="translate(20.1 150.706667) rotate(-90) scale(0.15 -0.15)">
      <defs>
       <path id="DejaVuSans-Oblique-50" d="M 1081 4666 
L 2541 4666 
Q 3178 4666 3512 4369 
Q 3847 4072 3847 3500 
Q 3847 2731 3353 2303 
Q 2859 1875 1966 1875 
L 1172 1875 
L 806 0 
L 172 0 
L 1081 4666 
z
M 1613 4147 
L 1275 2394 
L 2069 2394 
Q 2606 2394 2893 2669 
Q 3181 2944 3181 3456 
Q 3181 3784 2986 3965 
Q 2791 4147 2438 4147 
L 1613 4147 
z
" transform="scale(0.015625)"/>
       <path id="DejaVuSans-20" transform="scale(0.015625)"/>
       <path id="DejaVuSans-Oblique-54" d="M 378 4666 
L 4325 4666 
L 4225 4134 
L 2559 4134 
L 1759 0 
L 1125 0 
L 1925 4134 
L 275 4134 
L 378 4666 
z
" transform="scale(0.015625)"/>
       <path id="DejaVuSans-Oblique-57" d="M 616 4666 
L 1228 4666 
L 1453 697 
L 3213 4666 
L 3916 4666 
L 4147 697 
L 5888 4666 
L 6528 4666 
L 4453 0 
L 3659 0 
L 3444 3891 
L 1697 0 
L 903 0 
L 616 4666 
z
" transform="scale(0.015625)"/>
       <path id="DejaVuSans-2c" d="M 750 794 
L 1409 794 
L 1409 256 
L 897 -744 
L 494 -744 
L 750 256 
L 750 794 
z
" transform="scale(0.015625)"/>
       <path id="DejaVuSans-Oblique-6d" d="M 5747 2113 
L 5338 0 
L 4763 0 
L 5166 2094 
Q 5191 2228 5203 2325 
Q 5216 2422 5216 2491 
Q 5216 2772 5059 2928 
Q 4903 3084 4622 3084 
Q 4203 3084 3875 2770 
Q 3547 2456 3450 1953 
L 3066 0 
L 2491 0 
L 2900 2094 
Q 2925 2209 2937 2307 
Q 2950 2406 2950 2484 
Q 2950 2769 2794 2926 
Q 2638 3084 2363 3084 
Q 1938 3084 1609 2770 
Q 1281 2456 1184 1953 
L 800 0 
L 225 0 
L 909 3500 
L 1484 3500 
L 1375 2956 
Q 1609 3263 1923 3423 
Q 2238 3584 2597 3584 
Q 2978 3584 3223 3384 
Q 3469 3184 3519 2828 
Q 3781 3197 4126 3390 
Q 4472 3584 4856 3584 
Q 5306 3584 5551 3325 
Q 5797 3066 5797 2591 
Q 5797 2488 5784 2364 
Q 5772 2241 5747 2113 
z
" transform="scale(0.015625)"/>
       <path id="DejaVuSans-Oblique-61" d="M 3438 1997 
L 3047 0 
L 2472 0 
L 2578 531 
Q 2325 219 2001 64 
Q 1678 -91 1281 -91 
Q 834 -91 548 182 
Q 263 456 263 884 
Q 263 1497 752 1853 
Q 1241 2209 2100 2209 
L 2900 2209 
L 2931 2363 
Q 2938 2388 2941 2417 
Q 2944 2447 2944 2509 
Q 2944 2788 2717 2942 
Q 2491 3097 2081 3097 
Q 1800 3097 1504 3025 
Q 1209 2953 897 2809 
L 997 3341 
Q 1322 3463 1633 3523 
Q 1944 3584 2234 3584 
Q 2853 3584 3176 3315 
Q 3500 3047 3500 2534 
Q 3500 2431 3484 2292 
Q 3469 2153 3438 1997 
z
M 2816 1759 
L 2241 1759 
Q 1534 1759 1195 1570 
Q 856 1381 856 984 
Q 856 709 1029 553 
Q 1203 397 1509 397 
Q 1978 397 2328 733 
Q 2678 1069 2791 1631 
L 2816 1759 
z
" transform="scale(0.015625)"/>
       <path id="DejaVuSans-Oblique-78" d="M 3841 3500 
L 2234 1784 
L 3219 0 
L 2559 0 
L 1819 1388 
L 531 0 
L -166 0 
L 1556 1844 
L 641 3500 
L 1300 3500 
L 1972 2234 
L 3144 3500 
L 3841 3500 
z
" transform="scale(0.015625)"/>
       <path id="DejaVuSans-5b" d="M 550 4863 
L 1875 4863 
L 1875 4416 
L 1125 4416 
L 1125 -397 
L 1875 -397 
L 1875 -844 
L 550 -844 
L 550 4863 
z
" transform="scale(0.015625)"/>
       <path id="DejaVuSans-2218" d="M 2003 2603 
Q 1753 2603 1581 2429 
Q 1409 2256 1409 2006 
Q 1409 1759 1581 1589 
Q 1753 1419 2003 1419 
Q 2253 1419 2425 1589 
Q 2597 1759 2597 2006 
Q 2597 2253 2423 2428 
Q 2250 2603 2003 2603 
z
M 2003 3006 
Q 2203 3006 2387 2929 
Q 2572 2853 2706 2709 
Q 2850 2569 2922 2390 
Q 2994 2212 2994 2006 
Q 2994 1594 2705 1308 
Q 2416 1022 1997 1022 
Q 1575 1022 1294 1303 
Q 1013 1584 1013 2006 
Q 1013 2425 1300 2715 
Q 1588 3006 2003 3006 
z
" transform="scale(0.015625)"/>
       <path id="DejaVuSans-43" d="M 4122 4306 
L 4122 3641 
Q 3803 3938 3442 4084 
Q 3081 4231 2675 4231 
Q 1875 4231 1450 3742 
Q 1025 3253 1025 2328 
Q 1025 1406 1450 917 
Q 1875 428 2675 428 
Q 3081 428 3442 575 
Q 3803 722 4122 1019 
L 4122 359 
Q 3791 134 3420 21 
Q 3050 -91 2638 -91 
Q 1578 -91 968 557 
Q 359 1206 359 2328 
Q 359 3453 968 4101 
Q 1578 4750 2638 4750 
Q 3056 4750 3426 4639 
Q 3797 4528 4122 4306 
z
" transform="scale(0.015625)"/>
       <path id="DejaVuSans-5d" d="M 1947 4863 
L 1947 -844 
L 622 -844 
L 622 -397 
L 1369 -397 
L 1369 4416 
L 622 4416 
L 622 4863 
L 1947 4863 
z
" transform="scale(0.015625)"/>
      </defs>
      <use xlink:href="#DejaVuSans-Oblique-50" transform="translate(0 0.015625)"/>
      <use xlink:href="#DejaVuSans-39" transform="translate(60.302734 0.015625)"/>
      <use xlink:href="#DejaVuSans-35" transform="translate(123.925781 0.015625)"/>
      <use xlink:href="#DejaVuSans-20" transform="translate(187.548828 0.015625)"/>
      <use xlink:href="#DejaVuSans-Oblique-54" transform="translate(219.335938 0.015625)"/>
      <use xlink:href="#DejaVuSans-Oblique-57" transform="translate(280.419922 -16.390625) scale(0.7)"/>
      <use xlink:href="#DejaVuSans-2c" transform="translate(349.633789 -16.390625) scale(0.7)"/>
      <use xlink:href="#DejaVuSans-Oblique-6d" transform="translate(385.522461 -16.390625) scale(0.7)"/>
      <use xlink:href="#DejaVuSans-Oblique-61" transform="translate(453.710938 -16.390625) scale(0.7)"/>
      <use xlink:href="#DejaVuSans-Oblique-78" transform="translate(496.606445 -16.390625) scale(0.7)"/>
      <use xlink:href="#DejaVuSans-20" transform="translate(540.766602 0.015625)"/>
      <use xlink:href="#DejaVuSans-5b" transform="translate(572.553711 0.015625)"/>
      <use xlink:href="#DejaVuSans-2218" transform="translate(626.162109 38.296875) scale(0.7)"/>
      <use xlink:href="#DejaVuSans-43" transform="translate(686.352539 0.015625)"/>
      <use xlink:href="#DejaVuSans-5d" transform="translate(756.176758 0.015625)"/>
     </g>
    </g>
   </g>
   <g id="line2d_23">
    <path d="M 84.188932 81.663626 
L 94.470833 80.572855 
L 104.752733 79.482084 
L 115.034634 78.391313 
L 125.316535 77.300542 
L 135.598436 76.209772 
L 145.880337 75.119001 
L 156.162238 74.02823 
L 166.444138 72.937459 
L 176.726039 71.846689 
L 187.00794 70.755918 
L 197.289841 69.665147 
L 207.571742 68.574376 
L 217.853643 67.483605 
L 228.135543 66.392835 
L 238.417444 65.302064 
L 248.699345 64.211293 
L 258.981246 63.120522 
L 269.263147 62.029752 
L 279.545048 60.938981 
L 289.826948 59.84821 
L 300.108849 58.757439 
L 310.39075 57.666668 
L 320.672651 56.575898 
L 330.954552 55.485127 
L 341.236452 54.394356 
L 351.518353 53.303585 
L 361.800254 52.212815 
L 372.082155 51.122044 
L 382.364056 50.031273 
L 392.645957 48.940502 
L 402.927857 47.849731 
L 413.209758 46.758961 
L 423.491659 45.66819 
L 433.77356 44.577419 
L 444.055461 43.486648 
L 454.337362 42.395878 
L 464.619262 41.305107 
L 474.901163 40.214336 
L 485.183064 39.123565 
L 495.464965 38.032794 
L 505.746866 36.942024 
L 516.028767 35.851253 
L 526.310667 34.760482 
L 536.592568 33.669711 
" clip-path="url(#p3d36e21510)" style="fill: none; stroke: #000000; stroke-width: 1.5; stroke-linecap: square"/>
   </g>
   <g id="line2d_24">
    <path d="M 84.188932 102.148042 
L 94.470833 68.749002 
L 104.752733 60.179425 
L 115.034634 57.396463 
L 125.316535 49.3478 
L 135.598436 88.507585 
L 145.880337 89.513406 
L 156.162238 73.703662 
L 166.444138 61.870243 
L 176.726039 74.667744 
L 187.00794 62.755954 
L 197.289841 59.572497 
L 207.571742 78.47318 
L 217.853643 68.408374 
L 228.135543 75.076886 
L 238.417444 91.436586 
L 248.699345 76.475149 
L 258.981246 54.774503 
L 269.263147 52.865447 
L 279.545048 30.139857 
L 289.826948 81.784955 
L 300.108849 87.237626 
L 310.39075 77.085837 
L 320.672651 69.557638 
L 330.954552 44.575491 
L 341.236452 49.886655 
L 351.518353 50.808378 
L 361.800254 49.732861 
L 372.082155 61.718535 
L 382.364056 61.703472 
L 392.645957 36.957649 
L 402.927857 26.892879 
L 413.209758 34.087555 
L 423.491659 61.397301 
L 433.77356 63.693797 
L 444.055461 70.601708 
L 454.337362 47.981111 
L 464.619262 42.120584 
L 474.901163 39.278647 
L 485.183064 48.511617 
L 495.464965 25.491596 
L 505.746866 21.671731 
L 516.028767 21.55738 
L 526.310667 29.784484 
L 536.592568 14.818788 
" clip-path="url(#p3d36e21510)" style="fill: none; stroke: #ff0000; stroke-width: 1.5; stroke-linecap: square"/>
   </g>
   <g id="line2d_25">
    <path d="M 84.188932 156.039899 
L 94.470833 155.674961 
L 104.752733 155.310022 
L 115.034634 154.945084 
L 125.316535 154.580146 
L 135.598436 154.215208 
L 145.880337 153.850269 
L 156.162238 153.485331 
L 166.444138 153.120393 
L 176.726039 152.755454 
L 187.00794 152.390516 
L 197.289841 152.025578 
L 207.571742 151.66064 
L 217.853643 151.295701 
L 228.135543 150.930763 
L 238.417444 150.565825 
L 248.699345 150.200887 
L 258.981246 149.835948 
L 269.263147 149.47101 
L 279.545048 149.106072 
L 289.826948 148.741134 
L 300.108849 148.376195 
L 310.39075 148.011257 
L 320.672651 147.646319 
L 330.954552 147.28138 
L 341.236452 146.916442 
L 351.518353 146.551504 
L 361.800254 146.186566 
L 372.082155 145.821627 
L 382.364056 145.456689 
L 392.645957 145.091751 
L 402.927857 144.726813 
L 413.209758 144.361874 
L 423.491659 143.996936 
L 433.77356 143.631998 
L 444.055461 143.26706 
L 454.337362 142.902121 
L 464.619262 142.537183 
L 474.901163 142.172245 
L 485.183064 141.807306 
L 495.464965 141.442368 
L 505.746866 141.07743 
L 516.028767 140.712492 
L 526.310667 140.347553 
L 536.592568 139.982615 
" clip-path="url(#p3d36e21510)" style="fill: none; stroke: #000000; stroke-width: 1.5; stroke-linecap: square"/>
   </g>
   <g id="line2d_26">
    <path d="M 84.188932 160.160287 
L 94.470833 150.221683 
L 104.752733 142.003089 
L 115.034634 156.212504 
L 125.316535 138.4186 
L 135.598436 162.852953 
L 145.880337 164.817459 
L 156.162238 152.507401 
L 166.444138 145.102099 
L 176.726039 141.762892 
L 187.00794 151.05871 
L 197.289841 148.321116 
L 207.571742 147.685051 
L 217.853643 156.083838 
L 228.135543 160.809552 
L 238.417444 164.235828 
L 248.699345 141.915839 
L 258.981246 147.402046 
L 269.263147 142.242802 
L 279.545048 129.488134 
L 289.826948 161.753811 
L 300.108849 167.194545 
L 310.39075 162.43008 
L 320.672651 160.047727 
L 330.954552 153.791641 
L 341.236452 163.671634 
L 351.518353 148.687194 
L 361.800254 141.285344 
L 372.082155 149.512535 
L 382.364056 145.281929 
L 392.645957 143.420537 
L 402.927857 130.177906 
L 413.209758 145.134553 
L 423.491659 158.934779 
L 433.77356 150.007522 
L 444.055461 140.988352 
L 454.337362 137.168509 
L 464.619262 135.773585 
L 474.901163 129.164561 
L 485.183064 147.644665 
L 495.464965 130.189228 
L 505.746866 138.687012 
L 516.028767 136.06543 
L 526.310667 148.856913 
L 536.592568 131.334691 
" clip-path="url(#p3d36e21510)" style="fill: none; stroke-dasharray: 5.55,2.4; stroke-dashoffset: 0; stroke: #ff0000; stroke-width: 1.5"/>
   </g>
   <g id="patch_3">
    <path d="M 61.56875 174.813333 
L 61.56875 7.2 
" style="fill: none; stroke: #000000; stroke-width: 0.8; stroke-linejoin: miter; stroke-linecap: square"/>
   </g>
   <g id="patch_4">
    <path d="M 559.21275 174.813333 
L 559.21275 7.2 
" style="fill: none; stroke: #000000; stroke-width: 0.8; stroke-linejoin: miter; stroke-linecap: square"/>
   </g>
   <g id="patch_5">
    <path d="M 61.56875 174.813333 
L 559.21275 174.813333 
" style="fill: none; stroke: #000000; stroke-width: 0.8; stroke-linejoin: miter; stroke-linecap: square"/>
   </g>
   <g id="patch_6">
    <path d="M 61.56875 7.2 
L 559.21275 7.2 
" style="fill: none; stroke: #000000; stroke-width: 0.8; stroke-linejoin: miter; stroke-linecap: square"/>
   </g>
   <g id="legend_1">
    <g id="patch_7">
     <path d="M 69.26875 48.425937 
L 354.49875 48.425937 
Q 356.69875 48.425937 356.69875 46.225937 
L 356.69875 14.9 
Q 356.69875 12.7 354.49875 12.7 
L 69.26875 12.7 
Q 67.06875 12.7 67.06875 14.9 
L 67.06875 46.225937 
Q 67.06875 48.425937 69.26875 48.425937 
z
" style="fill: #ffffff; opacity: 0.8; stroke: #cccccc; stroke-linejoin: miter"/>
    </g>
    <g id="line2d_27">
     <path d="M 71.46875 21.72 
L 82.46875 21.72 
L 93.46875 21.72 
" style="fill: none; stroke: #000000; stroke-width: 1.5; stroke-linecap: square"/>
    </g>
    <g id="text_13">
     <!-- $\beta_1$=0.2$^\circ$C $dec^-1$ -->
     <g transform="translate(102.26875 25.57) scale(0.11 -0.11)">
      <defs>
       <path id="DejaVuSans-Oblique-3b2" d="M 872 216 
L 572 -1331 
L -6 -1331 
L 928 3478 
Q 1206 4903 2538 4903 
Q 3888 4903 3659 3700 
Q 3503 2844 2894 2531 
Q 3713 2250 3553 1416 
Q 3272 -69 1759 -66 
Q 1097 -63 872 216 
z
M 1019 966 
Q 1259 422 1875 425 
Q 2775 425 2966 1406 
Q 3138 2288 1675 2219 
L 1778 2750 
Q 2909 2731 3106 3750 
Q 3241 4438 2509 4434 
Q 1691 4434 1503 3459 
L 1019 966 
z
" transform="scale(0.015625)"/>
       <path id="DejaVuSans-3d" d="M 678 2906 
L 4684 2906 
L 4684 2381 
L 678 2381 
L 678 2906 
z
M 678 1631 
L 4684 1631 
L 4684 1100 
L 678 1100 
L 678 1631 
z
" transform="scale(0.015625)"/>
       <path id="DejaVuSans-Oblique-64" d="M 2675 525 
Q 2444 222 2128 65 
Q 1813 -91 1428 -91 
Q 903 -91 598 267 
Q 294 625 294 1247 
Q 294 1766 478 2236 
Q 663 2706 1013 3078 
Q 1244 3325 1534 3454 
Q 1825 3584 2144 3584 
Q 2481 3584 2739 3421 
Q 2997 3259 3138 2956 
L 3513 4863 
L 4091 4863 
L 3144 0 
L 2566 0 
L 2675 525 
z
M 891 1350 
Q 891 897 1095 644 
Q 1300 391 1663 391 
Q 1931 391 2161 520 
Q 2391 650 2566 903 
Q 2750 1166 2856 1509 
Q 2963 1853 2963 2188 
Q 2963 2622 2758 2865 
Q 2553 3109 2194 3109 
Q 1922 3109 1687 2981 
Q 1453 2853 1288 2613 
Q 1106 2353 998 2009 
Q 891 1666 891 1350 
z
" transform="scale(0.015625)"/>
       <path id="DejaVuSans-Oblique-65" d="M 3078 2063 
Q 3088 2113 3092 2166 
Q 3097 2219 3097 2272 
Q 3097 2653 2873 2875 
Q 2650 3097 2266 3097 
Q 1838 3097 1509 2826 
Q 1181 2556 1013 2059 
L 3078 2063 
z
M 3578 1613 
L 903 1613 
Q 884 1494 878 1425 
Q 872 1356 872 1306 
Q 872 872 1139 634 
Q 1406 397 1894 397 
Q 2269 397 2603 481 
Q 2938 566 3225 728 
L 3116 159 
Q 2806 34 2476 -28 
Q 2147 -91 1806 -91 
Q 1078 -91 686 257 
Q 294 606 294 1247 
Q 294 1794 489 2264 
Q 684 2734 1063 3103 
Q 1306 3334 1642 3459 
Q 1978 3584 2356 3584 
Q 2950 3584 3301 3228 
Q 3653 2872 3653 2272 
Q 3653 2128 3634 1964 
Q 3616 1800 3578 1613 
z
" transform="scale(0.015625)"/>
       <path id="DejaVuSans-Oblique-63" d="M 3431 3366 
L 3316 2797 
Q 3109 2947 2876 3022 
Q 2644 3097 2394 3097 
Q 2119 3097 1870 3000 
Q 1622 2903 1453 2725 
Q 1184 2453 1037 2087 
Q 891 1722 891 1331 
Q 891 859 1127 628 
Q 1363 397 1844 397 
Q 2081 397 2348 469 
Q 2616 541 2906 684 
L 2797 116 
Q 2547 13 2283 -39 
Q 2019 -91 1741 -91 
Q 1044 -91 669 257 
Q 294 606 294 1253 
Q 294 1797 489 2255 
Q 684 2713 1069 3078 
Q 1331 3328 1684 3456 
Q 2038 3584 2456 3584 
Q 2700 3584 2940 3529 
Q 3181 3475 3431 3366 
z
" transform="scale(0.015625)"/>
       <path id="DejaVuSans-2212" d="M 678 2272 
L 4684 2272 
L 4684 1741 
L 678 1741 
L 678 2272 
z
" transform="scale(0.015625)"/>
      </defs>
      <use xlink:href="#DejaVuSans-Oblique-3b2" transform="translate(0 0.390625)"/>
      <use xlink:href="#DejaVuSans-31" transform="translate(63.818359 -16.015625) scale(0.7)"/>
      <use xlink:href="#DejaVuSans-3d" transform="translate(111.088867 0.390625)"/>
      <use xlink:href="#DejaVuSans-30" transform="translate(194.87793 0.390625)"/>
      <use xlink:href="#DejaVuSans-2e" transform="translate(258.500977 0.390625)"/>
      <use xlink:href="#DejaVuSans-32" transform="translate(284.788086 0.390625)"/>
      <use xlink:href="#DejaVuSans-2218" transform="translate(363.005859 38.671875) scale(0.7)"/>
      <use xlink:href="#DejaVuSans-43" transform="translate(423.196289 0.390625)"/>
      <use xlink:href="#DejaVuSans-20" transform="translate(493.020508 0.390625)"/>
      <use xlink:href="#DejaVuSans-Oblique-64" transform="translate(524.807617 0.390625)"/>
      <use xlink:href="#DejaVuSans-Oblique-65" transform="translate(588.28418 0.390625)"/>
      <use xlink:href="#DejaVuSans-Oblique-63" transform="translate(649.807617 0.390625)"/>
      <use xlink:href="#DejaVuSans-2212" transform="translate(723.075677 38.671875) scale(0.7)"/>
      <use xlink:href="#DejaVuSans-31" transform="translate(798.100091 0.390625)"/>
     </g>
    </g>
    <g id="line2d_28">
     <path d="M 71.46875 37.888281 
L 82.46875 37.888281 
L 93.46875 37.888281 
" style="fill: none; stroke: #ff0000; stroke-width: 1.5; stroke-linecap: square"/>
    </g>
    <g id="text_14">
     <!-- HadISD -->
     <g transform="translate(102.26875 41.738281) scale(0.11 -0.11)">
      <defs>
       <path id="DejaVuSans-48" d="M 628 4666 
L 1259 4666 
L 1259 2753 
L 3553 2753 
L 3553 4666 
L 4184 4666 
L 4184 0 
L 3553 0 
L 3553 2222 
L 1259 2222 
L 1259 0 
L 628 0 
L 628 4666 
z
" transform="scale(0.015625)"/>
       <path id="DejaVuSans-61" d="M 2194 1759 
Q 1497 1759 1228 1600 
Q 959 1441 959 1056 
Q 959 750 1161 570 
Q 1363 391 1709 391 
Q 2188 391 2477 730 
Q 2766 1069 2766 1631 
L 2766 1759 
L 2194 1759 
z
M 3341 1997 
L 3341 0 
L 2766 0 
L 2766 531 
Q 2569 213 2275 61 
Q 1981 -91 1556 -91 
Q 1019 -91 701 211 
Q 384 513 384 1019 
Q 384 1609 779 1909 
Q 1175 2209 1959 2209 
L 2766 2209 
L 2766 2266 
Q 2766 2663 2505 2880 
Q 2244 3097 1772 3097 
Q 1472 3097 1187 3025 
Q 903 2953 641 2809 
L 641 3341 
Q 956 3463 1253 3523 
Q 1550 3584 1831 3584 
Q 2591 3584 2966 3190 
Q 3341 2797 3341 1997 
z
" transform="scale(0.015625)"/>
       <path id="DejaVuSans-64" d="M 2906 2969 
L 2906 4863 
L 3481 4863 
L 3481 0 
L 2906 0 
L 2906 525 
Q 2725 213 2448 61 
Q 2172 -91 1784 -91 
Q 1150 -91 751 415 
Q 353 922 353 1747 
Q 353 2572 751 3078 
Q 1150 3584 1784 3584 
Q 2172 3584 2448 3432 
Q 2725 3281 2906 2969 
z
M 947 1747 
Q 947 1113 1208 752 
Q 1469 391 1925 391 
Q 2381 391 2643 752 
Q 2906 1113 2906 1747 
Q 2906 2381 2643 2742 
Q 2381 3103 1925 3103 
Q 1469 3103 1208 2742 
Q 947 2381 947 1747 
z
" transform="scale(0.015625)"/>
       <path id="DejaVuSans-49" d="M 628 4666 
L 1259 4666 
L 1259 0 
L 628 0 
L 628 4666 
z
" transform="scale(0.015625)"/>
       <path id="DejaVuSans-53" d="M 3425 4513 
L 3425 3897 
Q 3066 4069 2747 4153 
Q 2428 4238 2131 4238 
Q 1616 4238 1336 4038 
Q 1056 3838 1056 3469 
Q 1056 3159 1242 3001 
Q 1428 2844 1947 2747 
L 2328 2669 
Q 3034 2534 3370 2195 
Q 3706 1856 3706 1288 
Q 3706 609 3251 259 
Q 2797 -91 1919 -91 
Q 1588 -91 1214 -16 
Q 841 59 441 206 
L 441 856 
Q 825 641 1194 531 
Q 1563 422 1919 422 
Q 2459 422 2753 634 
Q 3047 847 3047 1241 
Q 3047 1584 2836 1778 
Q 2625 1972 2144 2069 
L 1759 2144 
Q 1053 2284 737 2584 
Q 422 2884 422 3419 
Q 422 4038 858 4394 
Q 1294 4750 2059 4750 
Q 2388 4750 2728 4690 
Q 3069 4631 3425 4513 
z
" transform="scale(0.015625)"/>
       <path id="DejaVuSans-44" d="M 1259 4147 
L 1259 519 
L 2022 519 
Q 2988 519 3436 956 
Q 3884 1394 3884 2338 
Q 3884 3275 3436 3711 
Q 2988 4147 2022 4147 
L 1259 4147 
z
M 628 4666 
L 1925 4666 
Q 3281 4666 3915 4102 
Q 4550 3538 4550 2338 
Q 4550 1131 3912 565 
Q 3275 0 1925 0 
L 628 0 
L 628 4666 
z
" transform="scale(0.015625)"/>
      </defs>
      <use xlink:href="#DejaVuSans-48"/>
      <use xlink:href="#DejaVuSans-61" x="75.195312"/>
      <use xlink:href="#DejaVuSans-64" x="136.474609"/>
      <use xlink:href="#DejaVuSans-49" x="199.951172"/>
      <use xlink:href="#DejaVuSans-53" x="229.443359"/>
      <use xlink:href="#DejaVuSans-44" x="292.919922"/>
     </g>
    </g>
    <g id="line2d_29">
     <path d="M 219.08875 21.72 
L 230.08875 21.72 
L 241.08875 21.72 
" style="fill: none; stroke: #000000; stroke-width: 1.5; stroke-linecap: square"/>
    </g>
    <g id="text_15">
     <!-- $\beta_1$=0.07$^\circ$C $dec^-1$ -->
     <g transform="translate(249.88875 25.57) scale(0.11 -0.11)">
      <defs>
       <path id="DejaVuSans-37" d="M 525 4666 
L 3525 4666 
L 3525 4397 
L 1831 0 
L 1172 0 
L 2766 4134 
L 525 4134 
L 525 4666 
z
" transform="scale(0.015625)"/>
      </defs>
      <use xlink:href="#DejaVuSans-Oblique-3b2" transform="translate(0 0.390625)"/>
      <use xlink:href="#DejaVuSans-31" transform="translate(63.818359 -16.015625) scale(0.7)"/>
      <use xlink:href="#DejaVuSans-3d" transform="translate(111.088867 0.390625)"/>
      <use xlink:href="#DejaVuSans-30" transform="translate(194.87793 0.390625)"/>
      <use xlink:href="#DejaVuSans-2e" transform="translate(258.500977 0.390625)"/>
      <use xlink:href="#DejaVuSans-30" transform="translate(290.288086 0.390625)"/>
      <use xlink:href="#DejaVuSans-37" transform="translate(353.911133 0.390625)"/>
      <use xlink:href="#DejaVuSans-2218" transform="translate(432.128906 38.671875) scale(0.7)"/>
      <use xlink:href="#DejaVuSans-43" transform="translate(492.319336 0.390625)"/>
      <use xlink:href="#DejaVuSans-20" transform="translate(562.143555 0.390625)"/>
      <use xlink:href="#DejaVuSans-Oblique-64" transform="translate(593.930664 0.390625)"/>
      <use xlink:href="#DejaVuSans-Oblique-65" transform="translate(657.407227 0.390625)"/>
      <use xlink:href="#DejaVuSans-Oblique-63" transform="translate(718.930664 0.390625)"/>
      <use xlink:href="#DejaVuSans-2212" transform="translate(792.198724 38.671875) scale(0.7)"/>
      <use xlink:href="#DejaVuSans-31" transform="translate(867.223138 0.390625)"/>
     </g>
    </g>
    <g id="line2d_30">
     <path d="M 219.08875 37.888281 
L 230.08875 37.888281 
L 241.08875 37.888281 
" style="fill: none; stroke-dasharray: 5.55,2.4; stroke-dashoffset: 0; stroke: #ff0000; stroke-width: 1.5"/>
    </g>
    <g id="text_16">
     <!-- ERA5-Land -->
     <g transform="translate(249.88875 41.738281) scale(0.11 -0.11)">
      <defs>
       <path id="DejaVuSans-45" d="M 628 4666 
L 3578 4666 
L 3578 4134 
L 1259 4134 
L 1259 2753 
L 3481 2753 
L 3481 2222 
L 1259 2222 
L 1259 531 
L 3634 531 
L 3634 0 
L 628 0 
L 628 4666 
z
" transform="scale(0.015625)"/>
       <path id="DejaVuSans-52" d="M 2841 2188 
Q 3044 2119 3236 1894 
Q 3428 1669 3622 1275 
L 4263 0 
L 3584 0 
L 2988 1197 
Q 2756 1666 2539 1819 
Q 2322 1972 1947 1972 
L 1259 1972 
L 1259 0 
L 628 0 
L 628 4666 
L 2053 4666 
Q 2853 4666 3247 4331 
Q 3641 3997 3641 3322 
Q 3641 2881 3436 2590 
Q 3231 2300 2841 2188 
z
M 1259 4147 
L 1259 2491 
L 2053 2491 
Q 2509 2491 2742 2702 
Q 2975 2913 2975 3322 
Q 2975 3731 2742 3939 
Q 2509 4147 2053 4147 
L 1259 4147 
z
" transform="scale(0.015625)"/>
       <path id="DejaVuSans-41" d="M 2188 4044 
L 1331 1722 
L 3047 1722 
L 2188 4044 
z
M 1831 4666 
L 2547 4666 
L 4325 0 
L 3669 0 
L 3244 1197 
L 1141 1197 
L 716 0 
L 50 0 
L 1831 4666 
z
" transform="scale(0.015625)"/>
       <path id="DejaVuSans-2d" d="M 313 2009 
L 1997 2009 
L 1997 1497 
L 313 1497 
L 313 2009 
z
" transform="scale(0.015625)"/>
       <path id="DejaVuSans-4c" d="M 628 4666 
L 1259 4666 
L 1259 531 
L 3531 531 
L 3531 0 
L 628 0 
L 628 4666 
z
" transform="scale(0.015625)"/>
       <path id="DejaVuSans-6e" d="M 3513 2113 
L 3513 0 
L 2938 0 
L 2938 2094 
Q 2938 2591 2744 2837 
Q 2550 3084 2163 3084 
Q 1697 3084 1428 2787 
Q 1159 2491 1159 1978 
L 1159 0 
L 581 0 
L 581 3500 
L 1159 3500 
L 1159 2956 
Q 1366 3272 1645 3428 
Q 1925 3584 2291 3584 
Q 2894 3584 3203 3211 
Q 3513 2838 3513 2113 
z
" transform="scale(0.015625)"/>
      </defs>
      <use xlink:href="#DejaVuSans-45"/>
      <use xlink:href="#DejaVuSans-52" x="63.183594"/>
      <use xlink:href="#DejaVuSans-41" x="128.666016"/>
      <use xlink:href="#DejaVuSans-35" x="197.074219"/>
      <use xlink:href="#DejaVuSans-2d" x="260.697266"/>
      <use xlink:href="#DejaVuSans-4c" x="296.78125"/>
      <use xlink:href="#DejaVuSans-61" x="352.494141"/>
      <use xlink:href="#DejaVuSans-6e" x="413.773438"/>
      <use xlink:href="#DejaVuSans-64" x="477.152344"/>
     </g>
    </g>
   </g>
  </g>
  <g id="axes_2">
   <g id="patch_8">
    <path d="M 61.56875 358.946667 
L 559.21275 358.946667 
L 559.21275 191.333333 
L 61.56875 191.333333 
z
" style="fill: #ffffff"/>
   </g>
   <g id="matplotlib.axis_3">
    <g id="xtick_6">
     <g id="line2d_31">
      <path d="M 94.470833 358.946667 
L 94.470833 191.333333 
" clip-path="url(#p12f80e0c3a)" style="fill: none; stroke-dasharray: 2.96,1.28; stroke-dashoffset: 0; stroke: #808080; stroke-opacity: 0.6; stroke-width: 0.8"/>
     </g>
     <g id="line2d_32">
      <g>
       <use xlink:href="#m8819801ad9" x="94.470833" y="358.946667" style="stroke: #000000; stroke-width: 0.8"/>
      </g>
     </g>
     <g id="text_17">
      <!-- 1980 -->
      <g style="fill: #ffffff" transform="translate(79.200833 375.064792) scale(0.12 -0.12)">
       <use xlink:href="#DejaVuSans-31"/>
       <use xlink:href="#DejaVuSans-39" x="63.623047"/>
       <use xlink:href="#DejaVuSans-38" x="127.246094"/>
       <use xlink:href="#DejaVuSans-30" x="190.869141"/>
      </g>
     </g>
    </g>
    <g id="xtick_7">
     <g id="line2d_33">
      <path d="M 197.289841 358.946667 
L 197.289841 191.333333 
" clip-path="url(#p12f80e0c3a)" style="fill: none; stroke-dasharray: 2.96,1.28; stroke-dashoffset: 0; stroke: #808080; stroke-opacity: 0.6; stroke-width: 0.8"/>
     </g>
     <g id="line2d_34">
      <g>
       <use xlink:href="#m8819801ad9" x="197.289841" y="358.946667" style="stroke: #000000; stroke-width: 0.8"/>
      </g>
     </g>
     <g id="text_18">
      <!-- 1990 -->
      <g style="fill: #ffffff" transform="translate(182.019841 375.064792) scale(0.12 -0.12)">
       <use xlink:href="#DejaVuSans-31"/>
       <use xlink:href="#DejaVuSans-39" x="63.623047"/>
       <use xlink:href="#DejaVuSans-39" x="127.246094"/>
       <use xlink:href="#DejaVuSans-30" x="190.869141"/>
      </g>
     </g>
    </g>
    <g id="xtick_8">
     <g id="line2d_35">
      <path d="M 300.108849 358.946667 
L 300.108849 191.333333 
" clip-path="url(#p12f80e0c3a)" style="fill: none; stroke-dasharray: 2.96,1.28; stroke-dashoffset: 0; stroke: #808080; stroke-opacity: 0.6; stroke-width: 0.8"/>
     </g>
     <g id="line2d_36">
      <g>
       <use xlink:href="#m8819801ad9" x="300.108849" y="358.946667" style="stroke: #000000; stroke-width: 0.8"/>
      </g>
     </g>
     <g id="text_19">
      <!-- 2000 -->
      <g style="fill: #ffffff" transform="translate(284.838849 375.064792) scale(0.12 -0.12)">
       <use xlink:href="#DejaVuSans-32"/>
       <use xlink:href="#DejaVuSans-30" x="63.623047"/>
       <use xlink:href="#DejaVuSans-30" x="127.246094"/>
       <use xlink:href="#DejaVuSans-30" x="190.869141"/>
      </g>
     </g>
    </g>
    <g id="xtick_9">
     <g id="line2d_37">
      <path d="M 402.927857 358.946667 
L 402.927857 191.333333 
" clip-path="url(#p12f80e0c3a)" style="fill: none; stroke-dasharray: 2.96,1.28; stroke-dashoffset: 0; stroke: #808080; stroke-opacity: 0.6; stroke-width: 0.8"/>
     </g>
     <g id="line2d_38">
      <g>
       <use xlink:href="#m8819801ad9" x="402.927857" y="358.946667" style="stroke: #000000; stroke-width: 0.8"/>
      </g>
     </g>
     <g id="text_20">
      <!-- 2010 -->
      <g style="fill: #ffffff" transform="translate(387.657857 375.064792) scale(0.12 -0.12)">
       <use xlink:href="#DejaVuSans-32"/>
       <use xlink:href="#DejaVuSans-30" x="63.623047"/>
       <use xlink:href="#DejaVuSans-31" x="127.246094"/>
       <use xlink:href="#DejaVuSans-30" x="190.869141"/>
      </g>
     </g>
    </g>
    <g id="xtick_10">
     <g id="line2d_39">
      <path d="M 505.746866 358.946667 
L 505.746866 191.333333 
" clip-path="url(#p12f80e0c3a)" style="fill: none; stroke-dasharray: 2.96,1.28; stroke-dashoffset: 0; stroke: #808080; stroke-opacity: 0.6; stroke-width: 0.8"/>
     </g>
     <g id="line2d_40">
      <g>
       <use xlink:href="#m8819801ad9" x="505.746866" y="358.946667" style="stroke: #000000; stroke-width: 0.8"/>
      </g>
     </g>
     <g id="text_21">
      <!-- 2020 -->
      <g style="fill: #ffffff" transform="translate(490.476866 375.064792) scale(0.12 -0.12)">
       <use xlink:href="#DejaVuSans-32"/>
       <use xlink:href="#DejaVuSans-30" x="63.623047"/>
       <use xlink:href="#DejaVuSans-32" x="127.246094"/>
       <use xlink:href="#DejaVuSans-30" x="190.869141"/>
      </g>
     </g>
    </g>
   </g>
   <g id="matplotlib.axis_4">
    <g id="ytick_7">
     <g id="line2d_41">
      <path d="M 61.56875 335.446 
L 559.21275 335.446 
" clip-path="url(#p12f80e0c3a)" style="fill: none; stroke-dasharray: 2.96,1.28; stroke-dashoffset: 0; stroke: #808080; stroke-opacity: 0.6; stroke-width: 0.8"/>
     </g>
     <g id="line2d_42">
      <g>
       <use xlink:href="#m4fe9f221ff" x="61.56875" y="335.446" style="stroke: #000000; stroke-width: 0.8"/>
      </g>
     </g>
     <g id="text_22">
      <!-- 32 -->
      <g transform="translate(39.29875 340.005063) scale(0.12 -0.12)">
       <use xlink:href="#DejaVuSans-33"/>
       <use xlink:href="#DejaVuSans-32" x="63.623047"/>
      </g>
     </g>
    </g>
    <g id="ytick_8">
     <g id="line2d_43">
      <path d="M 61.56875 294.738621 
L 559.21275 294.738621 
" clip-path="url(#p12f80e0c3a)" style="fill: none; stroke-dasharray: 2.96,1.28; stroke-dashoffset: 0; stroke: #808080; stroke-opacity: 0.6; stroke-width: 0.8"/>
     </g>
     <g id="line2d_44">
      <g>
       <use xlink:href="#m4fe9f221ff" x="61.56875" y="294.738621" style="stroke: #000000; stroke-width: 0.8"/>
      </g>
     </g>
     <g id="text_23">
      <!-- 33 -->
      <g transform="translate(39.29875 299.297683) scale(0.12 -0.12)">
       <use xlink:href="#DejaVuSans-33"/>
       <use xlink:href="#DejaVuSans-33" x="63.623047"/>
      </g>
     </g>
    </g>
    <g id="ytick_9">
     <g id="line2d_45">
      <path d="M 61.56875 254.031241 
L 559.21275 254.031241 
" clip-path="url(#p12f80e0c3a)" style="fill: none; stroke-dasharray: 2.96,1.28; stroke-dashoffset: 0; stroke: #808080; stroke-opacity: 0.6; stroke-width: 0.8"/>
     </g>
     <g id="line2d_46">
      <g>
       <use xlink:href="#m4fe9f221ff" x="61.56875" y="254.031241" style="stroke: #000000; stroke-width: 0.8"/>
      </g>
     </g>
     <g id="text_24">
      <!-- 34 -->
      <g transform="translate(39.29875 258.590304) scale(0.12 -0.12)">
       <use xlink:href="#DejaVuSans-33"/>
       <use xlink:href="#DejaVuSans-34" x="63.623047"/>
      </g>
     </g>
    </g>
    <g id="ytick_10">
     <g id="line2d_47">
      <path d="M 61.56875 213.323862 
L 559.21275 213.323862 
" clip-path="url(#p12f80e0c3a)" style="fill: none; stroke-dasharray: 2.96,1.28; stroke-dashoffset: 0; stroke: #808080; stroke-opacity: 0.6; stroke-width: 0.8"/>
     </g>
     <g id="line2d_48">
      <g>
       <use xlink:href="#m4fe9f221ff" x="61.56875" y="213.323862" style="stroke: #000000; stroke-width: 0.8"/>
      </g>
     </g>
     <g id="text_25">
      <!-- 35 -->
      <g transform="translate(39.29875 217.882924) scale(0.12 -0.12)">
       <use xlink:href="#DejaVuSans-33"/>
       <use xlink:href="#DejaVuSans-35" x="63.623047"/>
      </g>
     </g>
    </g>
    <g id="text_26">
     <!-- $P95$ $T_{max}$ [$^\circ$C] -->
     <g transform="translate(32.179219 326.965) rotate(-90) scale(0.15 -0.15)">
      <use xlink:href="#DejaVuSans-Oblique-50" transform="translate(0 0.015625)"/>
      <use xlink:href="#DejaVuSans-39" transform="translate(60.302734 0.015625)"/>
      <use xlink:href="#DejaVuSans-35" transform="translate(123.925781 0.015625)"/>
      <use xlink:href="#DejaVuSans-20" transform="translate(187.548828 0.015625)"/>
      <use xlink:href="#DejaVuSans-Oblique-54" transform="translate(219.335938 0.015625)"/>
      <use xlink:href="#DejaVuSans-Oblique-6d" transform="translate(280.419922 -16.390625) scale(0.7)"/>
      <use xlink:href="#DejaVuSans-Oblique-61" transform="translate(348.608398 -16.390625) scale(0.7)"/>
      <use xlink:href="#DejaVuSans-Oblique-78" transform="translate(391.503906 -16.390625) scale(0.7)"/>
      <use xlink:href="#DejaVuSans-20" transform="translate(435.664062 0.015625)"/>
      <use xlink:href="#DejaVuSans-5b" transform="translate(467.451172 0.015625)"/>
      <use xlink:href="#DejaVuSans-2218" transform="translate(521.05957 38.296875) scale(0.7)"/>
      <use xlink:href="#DejaVuSans-43" transform="translate(581.25 0.015625)"/>
      <use xlink:href="#DejaVuSans-5d" transform="translate(651.074219 0.015625)"/>
     </g>
    </g>
   </g>
   <g id="line2d_49">
    <path d="M 84.188932 312.967964 
L 94.470833 310.839146 
L 104.752733 308.710329 
L 115.034634 306.581511 
L 125.316535 304.452693 
L 135.598436 302.323875 
L 145.880337 300.195058 
L 156.162238 298.06624 
L 166.444138 295.937422 
L 176.726039 293.808605 
L 187.00794 291.679787 
L 197.289841 289.550969 
L 207.571742 287.422152 
L 217.853643 285.293334 
L 228.135543 283.164516 
L 238.417444 281.035698 
L 248.699345 278.906881 
L 258.981246 276.778063 
L 269.263147 274.649245 
L 279.545048 272.520428 
L 289.826948 270.39161 
L 300.108849 268.262792 
L 310.39075 266.133974 
L 320.672651 264.005157 
L 330.954552 261.876339 
L 341.236452 259.747521 
L 351.518353 257.618704 
L 361.800254 255.489886 
L 372.082155 253.361068 
L 382.364056 251.232251 
L 392.645957 249.103433 
L 402.927857 246.974615 
L 413.209758 244.845797 
L 423.491659 242.71698 
L 433.77356 240.588162 
L 444.055461 238.459344 
L 454.337362 236.330527 
L 464.619262 234.201709 
L 474.901163 232.072891 
L 485.183064 229.944073 
L 495.464965 227.815256 
L 505.746866 225.686438 
L 516.028767 223.55762 
L 526.310667 221.428803 
L 536.592568 219.299985 
" clip-path="url(#p12f80e0c3a)" style="fill: none; stroke: #000000; stroke-width: 1.5; stroke-linecap: square"/>
   </g>
   <g id="line2d_50">
    <path d="M 84.188932 321.361247 
L 94.470833 287.163077 
L 104.752733 339.071797 
L 115.034634 296.610275 
L 125.316535 296.704864 
L 135.598436 320.412916 
L 145.880337 320.487667 
L 156.162238 323.059197 
L 166.444138 304.434516 
L 176.726039 314.206925 
L 187.00794 273.067757 
L 197.289841 279.927397 
L 207.571742 285.443539 
L 217.853643 285.9881 
L 228.135543 285.631193 
L 238.417444 266.708796 
L 248.699345 254.22564 
L 258.981246 272.514834 
L 269.263147 271.598824 
L 279.545048 205.959527 
L 289.826948 266.642848 
L 300.108849 283.631512 
L 310.39075 280.670494 
L 320.672651 261.614817 
L 330.954552 246.440672 
L 341.236452 284.257514 
L 351.518353 233.898175 
L 361.800254 256.4472 
L 372.082155 276.026293 
L 382.364056 249.790317 
L 392.645957 233.332508 
L 402.927857 240.455815 
L 413.209758 216.192056 
L 423.491659 250.502006 
L 433.77356 238.905616 
L 444.055461 258.794513 
L 454.337362 265.296395 
L 464.619262 236.982206 
L 474.901163 231.436251 
L 485.183064 243.019895 
L 495.464965 225.051511 
L 505.746866 220.192588 
L 516.028767 241.867776 
L 526.310667 231.049664 
L 536.592568 198.952121 
" clip-path="url(#p12f80e0c3a)" style="fill: none; stroke: #ffa500; stroke-width: 1.5; stroke-linecap: square"/>
   </g>
   <g id="line2d_51">
    <path d="M 84.188932 328.568767 
L 94.470833 327.545205 
L 104.752733 326.521643 
L 115.034634 325.498081 
L 125.316535 324.474518 
L 135.598436 323.450956 
L 145.880337 322.427394 
L 156.162238 321.403832 
L 166.444138 320.38027 
L 176.726039 319.356707 
L 187.00794 318.333145 
L 197.289841 317.309583 
L 207.571742 316.286021 
L 217.853643 315.262459 
L 228.135543 314.238896 
L 238.417444 313.215334 
L 248.699345 312.191772 
L 258.981246 311.16821 
L 269.263147 310.144647 
L 279.545048 309.121085 
L 289.826948 308.097523 
L 300.108849 307.073961 
L 310.39075 306.050399 
L 320.672651 305.026836 
L 330.954552 304.003274 
L 341.236452 302.979712 
L 351.518353 301.95615 
L 361.800254 300.932587 
L 372.082155 299.909025 
L 382.364056 298.885463 
L 392.645957 297.861901 
L 402.927857 296.838339 
L 413.209758 295.814776 
L 423.491659 294.791214 
L 433.77356 293.767652 
L 444.055461 292.74409 
L 454.337362 291.720528 
L 464.619262 290.696965 
L 474.901163 289.673403 
L 485.183064 288.649841 
L 495.464965 287.626279 
L 505.746866 286.602716 
L 516.028767 285.579154 
L 526.310667 284.555592 
L 536.592568 283.53203 
" clip-path="url(#p12f80e0c3a)" style="fill: none; stroke: #000000; stroke-width: 1.5; stroke-linecap: square"/>
   </g>
   <g id="line2d_52">
    <path d="M 84.188932 316.660808 
L 94.470833 293.825497 
L 104.752733 347.49261 
L 115.034634 318.553542 
L 125.316535 303.637976 
L 135.598436 326.990025 
L 145.880337 351.327879 
L 156.162238 346.160831 
L 166.444138 334.437892 
L 176.726039 323.253929 
L 187.00794 313.989648 
L 197.289841 327.264109 
L 207.571742 302.164595 
L 217.853643 342.911852 
L 228.135543 323.965957 
L 238.417444 305.590327 
L 248.699345 290.385792 
L 258.981246 319.0826 
L 269.263147 323.262261 
L 279.545048 238.76684 
L 289.826948 305.322301 
L 300.108849 313.520947 
L 310.39075 314.491109 
L 320.672651 295.467896 
L 330.954552 277.74307 
L 341.236452 328.447795 
L 351.518353 283.913562 
L 361.800254 306.89453 
L 372.082155 325.211403 
L 382.364056 305.998115 
L 392.645957 288.136431 
L 402.927857 296.029859 
L 413.209758 272.508992 
L 423.491659 309.33916 
L 433.77356 297.601198 
L 444.055461 314.029269 
L 454.337362 323.416568 
L 464.619262 296.162658 
L 474.901163 289.57547 
L 485.183064 298.502696 
L 495.464965 279.331117 
L 505.746866 273.480232 
L 516.028767 298.557813 
L 526.310667 288.112249 
L 536.592568 240.748524 
" clip-path="url(#p12f80e0c3a)" style="fill: none; stroke-dasharray: 5.55,2.4; stroke-dashoffset: 0; stroke: #ffa500; stroke-width: 1.5"/>
   </g>
   <g id="patch_9">
    <path d="M 61.56875 358.946667 
L 61.56875 191.333333 
" style="fill: none; stroke: #000000; stroke-width: 0.8; stroke-linejoin: miter; stroke-linecap: square"/>
   </g>
   <g id="patch_10">
    <path d="M 559.21275 358.946667 
L 559.21275 191.333333 
" style="fill: none; stroke: #000000; stroke-width: 0.8; stroke-linejoin: miter; stroke-linecap: square"/>
   </g>
   <g id="patch_11">
    <path d="M 61.56875 358.946667 
L 559.21275 358.946667 
" style="fill: none; stroke: #000000; stroke-width: 0.8; stroke-linejoin: miter; stroke-linecap: square"/>
   </g>
   <g id="patch_12">
    <path d="M 61.56875 191.333333 
L 559.21275 191.333333 
" style="fill: none; stroke: #000000; stroke-width: 0.8; stroke-linejoin: miter; stroke-linecap: square"/>
   </g>
   <g id="legend_2">
    <g id="patch_13">
     <path d="M 68.91875 230.685365 
L 347.90375 230.685365 
Q 350.00375 230.685365 350.00375 228.585365 
L 350.00375 198.683333 
Q 350.00375 196.583333 347.90375 196.583333 
L 68.91875 196.583333 
Q 66.81875 196.583333 66.81875 198.683333 
L 66.81875 228.585365 
Q 66.81875 230.685365 68.91875 230.685365 
z
" style="fill: #ffffff; opacity: 0.8; stroke: #cccccc; stroke-linejoin: miter"/>
    </g>
    <g id="line2d_53">
     <path d="M 71.01875 205.193333 
L 81.51875 205.193333 
L 92.01875 205.193333 
" style="fill: none; stroke: #000000; stroke-width: 1.5; stroke-linecap: square"/>
    </g>
    <g id="text_27">
     <!-- $\beta_1$=0.52$^\circ$C $dec^-1$ -->
     <g transform="translate(100.41875 208.868333) scale(0.105 -0.105)">
      <use xlink:href="#DejaVuSans-Oblique-3b2" transform="translate(0 0.390625)"/>
      <use xlink:href="#DejaVuSans-31" transform="translate(63.818359 -16.015625) scale(0.7)"/>
      <use xlink:href="#DejaVuSans-3d" transform="translate(111.088867 0.390625)"/>
      <use xlink:href="#DejaVuSans-30" transform="translate(194.87793 0.390625)"/>
      <use xlink:href="#DejaVuSans-2e" transform="translate(258.500977 0.390625)"/>
      <use xlink:href="#DejaVuSans-35" transform="translate(290.288086 0.390625)"/>
      <use xlink:href="#DejaVuSans-32" transform="translate(353.911133 0.390625)"/>
      <use xlink:href="#DejaVuSans-2218" transform="translate(432.128906 38.671875) scale(0.7)"/>
      <use xlink:href="#DejaVuSans-43" transform="translate(492.319336 0.390625)"/>
      <use xlink:href="#DejaVuSans-20" transform="translate(562.143555 0.390625)"/>
      <use xlink:href="#DejaVuSans-Oblique-64" transform="translate(593.930664 0.390625)"/>
      <use xlink:href="#DejaVuSans-Oblique-65" transform="translate(657.407227 0.390625)"/>
      <use xlink:href="#DejaVuSans-Oblique-63" transform="translate(718.930664 0.390625)"/>
      <use xlink:href="#DejaVuSans-2212" transform="translate(792.198724 38.671875) scale(0.7)"/>
      <use xlink:href="#DejaVuSans-31" transform="translate(867.223138 0.390625)"/>
     </g>
    </g>
    <g id="line2d_54">
     <path d="M 71.01875 220.626693 
L 81.51875 220.626693 
L 92.01875 220.626693 
" style="fill: none; stroke: #ffa500; stroke-width: 1.5; stroke-linecap: square"/>
    </g>
    <g id="text_28">
     <!-- HadISD -->
     <g transform="translate(100.41875 224.301693) scale(0.105 -0.105)">
      <use xlink:href="#DejaVuSans-48"/>
      <use xlink:href="#DejaVuSans-61" x="75.195312"/>
      <use xlink:href="#DejaVuSans-64" x="136.474609"/>
      <use xlink:href="#DejaVuSans-49" x="199.951172"/>
      <use xlink:href="#DejaVuSans-53" x="229.443359"/>
      <use xlink:href="#DejaVuSans-44" x="292.919922"/>
     </g>
    </g>
    <g id="line2d_55">
     <path d="M 219.17375 205.193333 
L 229.67375 205.193333 
L 240.17375 205.193333 
" style="fill: none; stroke: #000000; stroke-width: 1.5; stroke-linecap: square"/>
    </g>
    <g id="text_29">
     <!-- $\beta_1$=0.25$^\circ$C $dec^-1$ -->
     <g transform="translate(248.57375 208.868333) scale(0.105 -0.105)">
      <use xlink:href="#DejaVuSans-Oblique-3b2" transform="translate(0 0.390625)"/>
      <use xlink:href="#DejaVuSans-31" transform="translate(63.818359 -16.015625) scale(0.7)"/>
      <use xlink:href="#DejaVuSans-3d" transform="translate(111.088867 0.390625)"/>
      <use xlink:href="#DejaVuSans-30" transform="translate(194.87793 0.390625)"/>
      <use xlink:href="#DejaVuSans-2e" transform="translate(258.500977 0.390625)"/>
      <use xlink:href="#DejaVuSans-32" transform="translate(284.788086 0.390625)"/>
      <use xlink:href="#DejaVuSans-35" transform="translate(348.411133 0.390625)"/>
      <use xlink:href="#DejaVuSans-2218" transform="translate(426.628906 38.671875) scale(0.7)"/>
      <use xlink:href="#DejaVuSans-43" transform="translate(486.819336 0.390625)"/>
      <use xlink:href="#DejaVuSans-20" transform="translate(556.643555 0.390625)"/>
      <use xlink:href="#DejaVuSans-Oblique-64" transform="translate(588.430664 0.390625)"/>
      <use xlink:href="#DejaVuSans-Oblique-65" transform="translate(651.907227 0.390625)"/>
      <use xlink:href="#DejaVuSans-Oblique-63" transform="translate(713.430664 0.390625)"/>
      <use xlink:href="#DejaVuSans-2212" transform="translate(786.698724 38.671875) scale(0.7)"/>
      <use xlink:href="#DejaVuSans-31" transform="translate(861.723138 0.390625)"/>
     </g>
    </g>
    <g id="line2d_56">
     <path d="M 219.17375 220.626693 
L 229.67375 220.626693 
L 240.17375 220.626693 
" style="fill: none; stroke-dasharray: 5.55,2.4; stroke-dashoffset: 0; stroke: #ffa500; stroke-width: 1.5"/>
    </g>
    <g id="text_30">
     <!-- ERA5-Land -->
     <g transform="translate(248.57375 224.301693) scale(0.105 -0.105)">
      <use xlink:href="#DejaVuSans-45"/>
      <use xlink:href="#DejaVuSans-52" x="63.183594"/>
      <use xlink:href="#DejaVuSans-41" x="128.666016"/>
      <use xlink:href="#DejaVuSans-35" x="197.074219"/>
      <use xlink:href="#DejaVuSans-2d" x="260.697266"/>
      <use xlink:href="#DejaVuSans-4c" x="296.78125"/>
      <use xlink:href="#DejaVuSans-61" x="352.494141"/>
      <use xlink:href="#DejaVuSans-6e" x="413.773438"/>
      <use xlink:href="#DejaVuSans-64" x="477.152344"/>
     </g>
    </g>
   </g>
  </g>
  <g id="axes_3">
   <g id="patch_14">
    <path d="M 61.56875 543.08 
L 559.21275 543.08 
L 559.21275 375.466667 
L 61.56875 375.466667 
z
" style="fill: #ffffff"/>
   </g>
   <g id="matplotlib.axis_5">
    <g id="xtick_11">
     <g id="line2d_57">
      <path d="M 94.470833 543.08 
L 94.470833 375.466667 
" clip-path="url(#p49cb215ab3)" style="fill: none; stroke-dasharray: 2.96,1.28; stroke-dashoffset: 0; stroke: #808080; stroke-opacity: 0.6; stroke-width: 0.8"/>
     </g>
     <g id="line2d_58">
      <g>
       <use xlink:href="#m8819801ad9" x="94.470833" y="543.08" style="stroke: #000000; stroke-width: 0.8"/>
      </g>
     </g>
     <g id="text_31">
      <!-- 1980 -->
      <g transform="translate(79.200833 559.198125) scale(0.12 -0.12)">
       <use xlink:href="#DejaVuSans-31"/>
       <use xlink:href="#DejaVuSans-39" x="63.623047"/>
       <use xlink:href="#DejaVuSans-38" x="127.246094"/>
       <use xlink:href="#DejaVuSans-30" x="190.869141"/>
      </g>
     </g>
    </g>
    <g id="xtick_12">
     <g id="line2d_59">
      <path d="M 197.289841 543.08 
L 197.289841 375.466667 
" clip-path="url(#p49cb215ab3)" style="fill: none; stroke-dasharray: 2.96,1.28; stroke-dashoffset: 0; stroke: #808080; stroke-opacity: 0.6; stroke-width: 0.8"/>
     </g>
     <g id="line2d_60">
      <g>
       <use xlink:href="#m8819801ad9" x="197.289841" y="543.08" style="stroke: #000000; stroke-width: 0.8"/>
      </g>
     </g>
     <g id="text_32">
      <!-- 1990 -->
      <g transform="translate(182.019841 559.198125) scale(0.12 -0.12)">
       <use xlink:href="#DejaVuSans-31"/>
       <use xlink:href="#DejaVuSans-39" x="63.623047"/>
       <use xlink:href="#DejaVuSans-39" x="127.246094"/>
       <use xlink:href="#DejaVuSans-30" x="190.869141"/>
      </g>
     </g>
    </g>
    <g id="xtick_13">
     <g id="line2d_61">
      <path d="M 300.108849 543.08 
L 300.108849 375.466667 
" clip-path="url(#p49cb215ab3)" style="fill: none; stroke-dasharray: 2.96,1.28; stroke-dashoffset: 0; stroke: #808080; stroke-opacity: 0.6; stroke-width: 0.8"/>
     </g>
     <g id="line2d_62">
      <g>
       <use xlink:href="#m8819801ad9" x="300.108849" y="543.08" style="stroke: #000000; stroke-width: 0.8"/>
      </g>
     </g>
     <g id="text_33">
      <!-- 2000 -->
      <g transform="translate(284.838849 559.198125) scale(0.12 -0.12)">
       <use xlink:href="#DejaVuSans-32"/>
       <use xlink:href="#DejaVuSans-30" x="63.623047"/>
       <use xlink:href="#DejaVuSans-30" x="127.246094"/>
       <use xlink:href="#DejaVuSans-30" x="190.869141"/>
      </g>
     </g>
    </g>
    <g id="xtick_14">
     <g id="line2d_63">
      <path d="M 402.927857 543.08 
L 402.927857 375.466667 
" clip-path="url(#p49cb215ab3)" style="fill: none; stroke-dasharray: 2.96,1.28; stroke-dashoffset: 0; stroke: #808080; stroke-opacity: 0.6; stroke-width: 0.8"/>
     </g>
     <g id="line2d_64">
      <g>
       <use xlink:href="#m8819801ad9" x="402.927857" y="543.08" style="stroke: #000000; stroke-width: 0.8"/>
      </g>
     </g>
     <g id="text_34">
      <!-- 2010 -->
      <g transform="translate(387.657857 559.198125) scale(0.12 -0.12)">
       <use xlink:href="#DejaVuSans-32"/>
       <use xlink:href="#DejaVuSans-30" x="63.623047"/>
       <use xlink:href="#DejaVuSans-31" x="127.246094"/>
       <use xlink:href="#DejaVuSans-30" x="190.869141"/>
      </g>
     </g>
    </g>
    <g id="xtick_15">
     <g id="line2d_65">
      <path d="M 505.746866 543.08 
L 505.746866 375.466667 
" clip-path="url(#p49cb215ab3)" style="fill: none; stroke-dasharray: 2.96,1.28; stroke-dashoffset: 0; stroke: #808080; stroke-opacity: 0.6; stroke-width: 0.8"/>
     </g>
     <g id="line2d_66">
      <g>
       <use xlink:href="#m8819801ad9" x="505.746866" y="543.08" style="stroke: #000000; stroke-width: 0.8"/>
      </g>
     </g>
     <g id="text_35">
      <!-- 2020 -->
      <g transform="translate(490.476866 559.198125) scale(0.12 -0.12)">
       <use xlink:href="#DejaVuSans-32"/>
       <use xlink:href="#DejaVuSans-30" x="63.623047"/>
       <use xlink:href="#DejaVuSans-32" x="127.246094"/>
       <use xlink:href="#DejaVuSans-30" x="190.869141"/>
      </g>
     </g>
    </g>
   </g>
   <g id="matplotlib.axis_6">
    <g id="ytick_11">
     <g id="line2d_67">
      <path d="M 61.56875 535.706378 
L 559.21275 535.706378 
" clip-path="url(#p49cb215ab3)" style="fill: none; stroke-dasharray: 2.96,1.28; stroke-dashoffset: 0; stroke: #808080; stroke-opacity: 0.6; stroke-width: 0.8"/>
     </g>
     <g id="line2d_68">
      <g>
       <use xlink:href="#m4fe9f221ff" x="61.56875" y="535.706378" style="stroke: #000000; stroke-width: 0.8"/>
      </g>
     </g>
     <g id="text_36">
      <!-- 17.0 -->
      <g transform="translate(27.85 540.265441) scale(0.12 -0.12)">
       <use xlink:href="#DejaVuSans-31"/>
       <use xlink:href="#DejaVuSans-37" x="63.623047"/>
       <use xlink:href="#DejaVuSans-2e" x="127.246094"/>
       <use xlink:href="#DejaVuSans-30" x="159.033203"/>
      </g>
     </g>
    </g>
    <g id="ytick_12">
     <g id="line2d_69">
      <path d="M 61.56875 503.413853 
L 559.21275 503.413853 
" clip-path="url(#p49cb215ab3)" style="fill: none; stroke-dasharray: 2.96,1.28; stroke-dashoffset: 0; stroke: #808080; stroke-opacity: 0.6; stroke-width: 0.8"/>
     </g>
     <g id="line2d_70">
      <g>
       <use xlink:href="#m4fe9f221ff" x="61.56875" y="503.413853" style="stroke: #000000; stroke-width: 0.8"/>
      </g>
     </g>
     <g id="text_37">
      <!-- 17.5 -->
      <g transform="translate(27.85 507.972916) scale(0.12 -0.12)">
       <use xlink:href="#DejaVuSans-31"/>
       <use xlink:href="#DejaVuSans-37" x="63.623047"/>
       <use xlink:href="#DejaVuSans-2e" x="127.246094"/>
       <use xlink:href="#DejaVuSans-35" x="159.033203"/>
      </g>
     </g>
    </g>
    <g id="ytick_13">
     <g id="line2d_71">
      <path d="M 61.56875 471.121329 
L 559.21275 471.121329 
" clip-path="url(#p49cb215ab3)" style="fill: none; stroke-dasharray: 2.96,1.28; stroke-dashoffset: 0; stroke: #808080; stroke-opacity: 0.6; stroke-width: 0.8"/>
     </g>
     <g id="line2d_72">
      <g>
       <use xlink:href="#m4fe9f221ff" x="61.56875" y="471.121329" style="stroke: #000000; stroke-width: 0.8"/>
      </g>
     </g>
     <g id="text_38">
      <!-- 18.0 -->
      <g transform="translate(27.85 475.680391) scale(0.12 -0.12)">
       <use xlink:href="#DejaVuSans-31"/>
       <use xlink:href="#DejaVuSans-38" x="63.623047"/>
       <use xlink:href="#DejaVuSans-2e" x="127.246094"/>
       <use xlink:href="#DejaVuSans-30" x="159.033203"/>
      </g>
     </g>
    </g>
    <g id="ytick_14">
     <g id="line2d_73">
      <path d="M 61.56875 438.828804 
L 559.21275 438.828804 
" clip-path="url(#p49cb215ab3)" style="fill: none; stroke-dasharray: 2.96,1.28; stroke-dashoffset: 0; stroke: #808080; stroke-opacity: 0.6; stroke-width: 0.8"/>
     </g>
     <g id="line2d_74">
      <g>
       <use xlink:href="#m4fe9f221ff" x="61.56875" y="438.828804" style="stroke: #000000; stroke-width: 0.8"/>
      </g>
     </g>
     <g id="text_39">
      <!-- 18.5 -->
      <g transform="translate(27.85 443.387867) scale(0.12 -0.12)">
       <use xlink:href="#DejaVuSans-31"/>
       <use xlink:href="#DejaVuSans-38" x="63.623047"/>
       <use xlink:href="#DejaVuSans-2e" x="127.246094"/>
       <use xlink:href="#DejaVuSans-35" x="159.033203"/>
      </g>
     </g>
    </g>
    <g id="ytick_15">
     <g id="line2d_75">
      <path d="M 61.56875 406.536279 
L 559.21275 406.536279 
" clip-path="url(#p49cb215ab3)" style="fill: none; stroke-dasharray: 2.96,1.28; stroke-dashoffset: 0; stroke: #808080; stroke-opacity: 0.6; stroke-width: 0.8"/>
     </g>
     <g id="line2d_76">
      <g>
       <use xlink:href="#m4fe9f221ff" x="61.56875" y="406.536279" style="stroke: #000000; stroke-width: 0.8"/>
      </g>
     </g>
     <g id="text_40">
      <!-- 19.0 -->
      <g transform="translate(27.85 411.095342) scale(0.12 -0.12)">
       <use xlink:href="#DejaVuSans-31"/>
       <use xlink:href="#DejaVuSans-39" x="63.623047"/>
       <use xlink:href="#DejaVuSans-2e" x="127.246094"/>
       <use xlink:href="#DejaVuSans-30" x="159.033203"/>
      </g>
     </g>
    </g>
    <g id="text_41">
     <!-- $P95$ $SH_{max}$ [$g$ $kg^{-1}$] -->
     <g transform="translate(20.7 530.598333) rotate(-90) scale(0.15 -0.15)">
      <defs>
       <path id="DejaVuSans-Oblique-53" d="M 3859 4513 
L 3738 3897 
Q 3422 4066 3111 4152 
Q 2800 4238 2509 4238 
Q 1944 4238 1609 3991 
Q 1275 3744 1275 3334 
Q 1275 3109 1398 2989 
Q 1522 2869 2034 2731 
L 2413 2638 
Q 3053 2472 3303 2217 
Q 3553 1963 3553 1503 
Q 3553 797 2998 353 
Q 2444 -91 1538 -91 
Q 1166 -91 791 -17 
Q 416 56 38 206 
L 166 856 
Q 513 641 861 531 
Q 1209 422 1556 422 
Q 2147 422 2503 684 
Q 2859 947 2859 1369 
Q 2859 1650 2717 1795 
Q 2575 1941 2106 2059 
L 1728 2156 
Q 1081 2325 845 2545 
Q 609 2766 609 3163 
Q 609 3859 1145 4304 
Q 1681 4750 2541 4750 
Q 2875 4750 3203 4690 
Q 3531 4631 3859 4513 
z
" transform="scale(0.015625)"/>
       <path id="DejaVuSans-Oblique-48" d="M 1081 4666 
L 1716 4666 
L 1344 2753 
L 3634 2753 
L 4006 4666 
L 4641 4666 
L 3731 0 
L 3097 0 
L 3531 2222 
L 1241 2222 
L 806 0 
L 172 0 
L 1081 4666 
z
" transform="scale(0.015625)"/>
       <path id="DejaVuSans-Oblique-67" d="M 3816 3500 
L 3219 434 
Q 3047 -456 2561 -893 
Q 2075 -1331 1253 -1331 
Q 950 -1331 690 -1286 
Q 431 -1241 206 -1147 
L 313 -588 
Q 525 -725 762 -790 
Q 1000 -856 1269 -856 
Q 1816 -856 2167 -557 
Q 2519 -259 2631 300 
L 2681 563 
Q 2441 288 2122 144 
Q 1803 0 1434 0 
Q 903 0 598 351 
Q 294 703 294 1319 
Q 294 1803 478 2267 
Q 663 2731 997 3091 
Q 1219 3328 1514 3456 
Q 1809 3584 2131 3584 
Q 2484 3584 2746 3420 
Q 3009 3256 3138 2956 
L 3238 3500 
L 3816 3500 
z
M 2950 2216 
Q 2950 2641 2750 2872 
Q 2550 3103 2181 3103 
Q 1953 3103 1747 3012 
Q 1541 2922 1394 2759 
Q 1156 2491 1023 2127 
Q 891 1763 891 1375 
Q 891 944 1092 712 
Q 1294 481 1672 481 
Q 2219 481 2584 976 
Q 2950 1472 2950 2216 
z
" transform="scale(0.015625)"/>
       <path id="DejaVuSans-Oblique-6b" d="M 1172 4863 
L 1747 4863 
L 1197 2028 
L 3169 3500 
L 3916 3500 
L 1716 1825 
L 3322 0 
L 2625 0 
L 1131 1709 
L 800 0 
L 225 0 
L 1172 4863 
z
" transform="scale(0.015625)"/>
      </defs>
      <use xlink:href="#DejaVuSans-Oblique-50" transform="translate(0 0.684375)"/>
      <use xlink:href="#DejaVuSans-39" transform="translate(60.302734 0.684375)"/>
      <use xlink:href="#DejaVuSans-35" transform="translate(123.925781 0.684375)"/>
      <use xlink:href="#DejaVuSans-20" transform="translate(187.548828 0.684375)"/>
      <use xlink:href="#DejaVuSans-Oblique-53" transform="translate(219.335938 0.684375)"/>
      <use xlink:href="#DejaVuSans-Oblique-48" transform="translate(282.8125 0.684375)"/>
      <use xlink:href="#DejaVuSans-Oblique-6d" transform="translate(358.007812 -15.721875) scale(0.7)"/>
      <use xlink:href="#DejaVuSans-Oblique-61" transform="translate(426.196289 -15.721875) scale(0.7)"/>
      <use xlink:href="#DejaVuSans-Oblique-78" transform="translate(469.091797 -15.721875) scale(0.7)"/>
      <use xlink:href="#DejaVuSans-20" transform="translate(513.251953 0.684375)"/>
      <use xlink:href="#DejaVuSans-5b" transform="translate(545.039062 0.684375)"/>
      <use xlink:href="#DejaVuSans-Oblique-67" transform="translate(584.052734 0.684375)"/>
      <use xlink:href="#DejaVuSans-20" transform="translate(647.529297 0.684375)"/>
      <use xlink:href="#DejaVuSans-Oblique-6b" transform="translate(679.316406 0.684375)"/>
      <use xlink:href="#DejaVuSans-Oblique-67" transform="translate(737.226562 0.684375)"/>
      <use xlink:href="#DejaVuSans-2212" transform="translate(805.353021 38.965625) scale(0.7)"/>
      <use xlink:href="#DejaVuSans-31" transform="translate(864.005365 38.965625) scale(0.7)"/>
      <use xlink:href="#DejaVuSans-5d" transform="translate(911.275872 0.684375)"/>
     </g>
    </g>
   </g>
   <g id="line2d_77">
    <path d="M 84.188932 444.461955 
L 94.470833 444.034216 
L 104.752733 443.606477 
L 115.034634 443.178739 
L 125.316535 442.751 
L 135.598436 442.323261 
L 145.880337 441.895522 
L 156.162238 441.467783 
L 166.444138 441.040044 
L 176.726039 440.612305 
L 187.00794 440.184567 
L 197.289841 439.756828 
L 207.571742 439.329089 
L 217.853643 438.90135 
L 228.135543 438.473611 
L 238.417444 438.045872 
L 248.699345 437.618134 
L 258.981246 437.190395 
L 269.263147 436.762656 
L 279.545048 436.334917 
L 289.826948 435.907178 
L 300.108849 435.479439 
L 310.39075 435.051701 
L 320.672651 434.623962 
L 330.954552 434.196223 
L 341.236452 433.768484 
L 351.518353 433.340745 
L 361.800254 432.913006 
L 372.082155 432.485268 
L 382.364056 432.057529 
L 392.645957 431.62979 
L 402.927857 431.202051 
L 413.209758 430.774312 
L 423.491659 430.346573 
L 433.77356 429.918835 
L 444.055461 429.491096 
L 454.337362 429.063357 
L 464.619262 428.635618 
L 474.901163 428.207879 
L 485.183064 427.78014 
L 495.464965 427.352402 
L 505.746866 426.924663 
L 516.028767 426.496924 
L 526.310667 426.069185 
L 536.592568 425.641446 
" clip-path="url(#p49cb215ab3)" style="fill: none; stroke: #000000; stroke-width: 1.5; stroke-linecap: square"/>
   </g>
   <g id="line2d_78">
    <path d="M 84.188932 466.13812 
L 94.470833 423.685352 
L 104.752733 402.322229 
L 115.034634 415.738688 
L 125.316535 401.557815 
L 135.598436 451.225162 
L 145.880337 466.790045 
L 156.162238 445.451744 
L 166.444138 430.560029 
L 176.726039 442.087089 
L 187.00794 441.060227 
L 197.289841 434.651875 
L 207.571742 457.525347 
L 217.853643 440.32893 
L 228.135543 430.075304 
L 238.417444 469.837298 
L 248.699345 440.995352 
L 258.981246 416.352976 
L 269.263147 418.038775 
L 279.545048 383.085455 
L 289.826948 451.027967 
L 300.108849 480.018203 
L 310.39075 473.45809 
L 320.672651 469.227566 
L 330.954552 431.671645 
L 341.236452 445.694506 
L 351.518353 448.842244 
L 361.800254 438.440988 
L 372.082155 457.76578 
L 382.364056 455.844597 
L 392.645957 425.829476 
L 402.927857 403.150969 
L 413.209758 426.137784 
L 423.491659 461.776803 
L 433.77356 464.679431 
L 444.055461 464.654091 
L 454.337362 434.402305 
L 464.619262 419.950792 
L 474.901163 420.593165 
L 485.183064 432.340401 
L 495.464965 399.224413 
L 505.746866 396.842186 
L 516.028767 386.788775 
L 526.310667 412.91657 
L 536.592568 398.539969 
" clip-path="url(#p49cb215ab3)" style="fill: none; stroke: #0000ff; stroke-width: 1.5; stroke-linecap: square"/>
   </g>
   <g id="line2d_79">
    <path d="M 84.188932 520.410302 
L 94.470833 519.917778 
L 104.752733 519.425255 
L 115.034634 518.932731 
L 125.316535 518.440207 
L 135.598436 517.947683 
L 145.880337 517.455159 
L 156.162238 516.962635 
L 166.444138 516.470112 
L 176.726039 515.977588 
L 187.00794 515.485064 
L 197.289841 514.99254 
L 207.571742 514.500016 
L 217.853643 514.007493 
L 228.135543 513.514969 
L 238.417444 513.022445 
L 248.699345 512.529921 
L 258.981246 512.037397 
L 269.263147 511.544873 
L 279.545048 511.05235 
L 289.826948 510.559826 
L 300.108849 510.067302 
L 310.39075 509.574778 
L 320.672651 509.082254 
L 330.954552 508.58973 
L 341.236452 508.097207 
L 351.518353 507.604683 
L 361.800254 507.112159 
L 372.082155 506.619635 
L 382.364056 506.127111 
L 392.645957 505.634588 
L 402.927857 505.142064 
L 413.209758 504.64954 
L 423.491659 504.157016 
L 433.77356 503.664492 
L 444.055461 503.171968 
L 454.337362 502.679445 
L 464.619262 502.186921 
L 474.901163 501.694397 
L 485.183064 501.201873 
L 495.464965 500.709349 
L 505.746866 500.216826 
L 516.028767 499.724302 
L 526.310667 499.231778 
L 536.592568 498.739254 
" clip-path="url(#p49cb215ab3)" style="fill: none; stroke: #000000; stroke-width: 1.5; stroke-linecap: square"/>
   </g>
   <g id="line2d_80">
    <path d="M 84.188932 526.362184 
L 94.470833 517.122089 
L 104.752733 501.719306 
L 115.034634 519.920185 
L 125.316535 494.737692 
L 135.598436 526.323093 
L 145.880337 533.951037 
L 156.162238 518.853616 
L 166.444138 505.272236 
L 176.726039 499.805904 
L 187.00794 515.386211 
L 197.289841 512.064291 
L 207.571742 511.821205 
L 217.853643 520.810147 
L 228.135543 521.683841 
L 238.417444 535.461212 
L 248.699345 499.506144 
L 258.981246 507.956831 
L 269.263147 498.430036 
L 279.545048 481.151638 
L 289.826948 525.449659 
L 300.108849 535.3207 
L 310.39075 530.054588 
L 320.672651 527.488348 
L 330.954552 517.924416 
L 341.236452 532.488588 
L 351.518353 508.797667 
L 361.800254 499.947045 
L 372.082155 514.604852 
L 382.364056 500.343963 
L 392.645957 504.75686 
L 402.927857 484.497052 
L 413.209758 508.529373 
L 423.491659 521.775876 
L 433.77356 507.428859 
L 444.055461 496.918485 
L 454.337362 494.751997 
L 464.619262 497.247916 
L 474.901163 485.61916 
L 485.183064 510.837748 
L 495.464965 487.003203 
L 505.746866 499.59979 
L 516.028767 492.760805 
L 526.310667 506.629274 
L 536.592568 491.74989 
" clip-path="url(#p49cb215ab3)" style="fill: none; stroke-dasharray: 5.55,2.4; stroke-dashoffset: 0; stroke: #0000ff; stroke-width: 1.5"/>
   </g>
   <g id="patch_15">
    <path d="M 61.56875 543.08 
L 61.56875 375.466667 
" style="fill: none; stroke: #000000; stroke-width: 0.8; stroke-linejoin: miter; stroke-linecap: square"/>
   </g>
   <g id="patch_16">
    <path d="M 559.21275 543.08 
L 559.21275 375.466667 
" style="fill: none; stroke: #000000; stroke-width: 0.8; stroke-linejoin: miter; stroke-linecap: square"/>
   </g>
   <g id="patch_17">
    <path d="M 61.56875 543.08 
L 559.21275 543.08 
" style="fill: none; stroke: #000000; stroke-width: 0.8; stroke-linejoin: miter; stroke-linecap: square"/>
   </g>
   <g id="patch_18">
    <path d="M 61.56875 375.466667 
L 559.21275 375.466667 
" style="fill: none; stroke: #000000; stroke-width: 0.8; stroke-linejoin: miter; stroke-linecap: square"/>
   </g>
   <g id="legend_3">
    <g id="patch_19">
     <path d="M 68.91875 414.818698 
L 403.23875 414.818698 
Q 405.33875 414.818698 405.33875 412.718698 
L 405.33875 382.816667 
Q 405.33875 380.716667 403.23875 380.716667 
L 68.91875 380.716667 
Q 66.81875 380.716667 66.81875 382.816667 
L 66.81875 412.718698 
Q 66.81875 414.818698 68.91875 414.818698 
z
" style="fill: #ffffff; opacity: 0.8; stroke: #cccccc; stroke-linejoin: miter"/>
    </g>
    <g id="line2d_81">
     <path d="M 71.01875 389.326667 
L 81.51875 389.326667 
L 92.01875 389.326667 
" style="fill: none; stroke: #000000; stroke-width: 1.5; stroke-linecap: square"/>
    </g>
    <g id="text_42">
     <!-- $\beta_1$=0.07 $g$ $kg^-1$ $dec^-1$ -->
     <g transform="translate(100.41875 393.001667) scale(0.105 -0.105)">
      <use xlink:href="#DejaVuSans-Oblique-3b2" transform="translate(0 0.390625)"/>
      <use xlink:href="#DejaVuSans-31" transform="translate(63.818359 -16.015625) scale(0.7)"/>
      <use xlink:href="#DejaVuSans-3d" transform="translate(111.088867 0.390625)"/>
      <use xlink:href="#DejaVuSans-30" transform="translate(194.87793 0.390625)"/>
      <use xlink:href="#DejaVuSans-2e" transform="translate(258.500977 0.390625)"/>
      <use xlink:href="#DejaVuSans-30" transform="translate(290.288086 0.390625)"/>
      <use xlink:href="#DejaVuSans-37" transform="translate(353.911133 0.390625)"/>
      <use xlink:href="#DejaVuSans-20" transform="translate(417.53418 0.390625)"/>
      <use xlink:href="#DejaVuSans-Oblique-67" transform="translate(449.321289 0.390625)"/>
      <use xlink:href="#DejaVuSans-20" transform="translate(512.797852 0.390625)"/>
      <use xlink:href="#DejaVuSans-Oblique-6b" transform="translate(544.584961 0.390625)"/>
      <use xlink:href="#DejaVuSans-Oblique-67" transform="translate(602.495117 0.390625)"/>
      <use xlink:href="#DejaVuSans-2212" transform="translate(684.259271 38.671875) scale(0.7)"/>
      <use xlink:href="#DejaVuSans-31" transform="translate(759.283685 0.390625)"/>
      <use xlink:href="#DejaVuSans-20" transform="translate(822.906732 0.390625)"/>
      <use xlink:href="#DejaVuSans-Oblique-64" transform="translate(854.693841 0.390625)"/>
      <use xlink:href="#DejaVuSans-Oblique-65" transform="translate(918.170404 0.390625)"/>
      <use xlink:href="#DejaVuSans-Oblique-63" transform="translate(979.693841 0.390625)"/>
      <use xlink:href="#DejaVuSans-2212" transform="translate(1052.961901 38.671875) scale(0.7)"/>
      <use xlink:href="#DejaVuSans-31" transform="translate(1127.986315 0.390625)"/>
     </g>
    </g>
    <g id="line2d_82">
     <path d="M 71.01875 404.760026 
L 81.51875 404.760026 
L 92.01875 404.760026 
" style="fill: none; stroke: #0000ff; stroke-width: 1.5; stroke-linecap: square"/>
    </g>
    <g id="text_43">
     <!-- HadISD -->
     <g transform="translate(100.41875 408.435026) scale(0.105 -0.105)">
      <use xlink:href="#DejaVuSans-48"/>
      <use xlink:href="#DejaVuSans-61" x="75.195312"/>
      <use xlink:href="#DejaVuSans-64" x="136.474609"/>
      <use xlink:href="#DejaVuSans-49" x="199.951172"/>
      <use xlink:href="#DejaVuSans-53" x="229.443359"/>
      <use xlink:href="#DejaVuSans-44" x="292.919922"/>
     </g>
    </g>
    <g id="line2d_83">
     <path d="M 246.57875 389.326667 
L 257.07875 389.326667 
L 267.57875 389.326667 
" style="fill: none; stroke: #000000; stroke-width: 1.5; stroke-linecap: square"/>
    </g>
    <g id="text_44">
     <!-- $\beta_1$=0.08 $g$ $kg^-1$ $dec^-1$ -->
     <g transform="translate(275.97875 393.001667) scale(0.105 -0.105)">
      <use xlink:href="#DejaVuSans-Oblique-3b2" transform="translate(0 0.390625)"/>
      <use xlink:href="#DejaVuSans-31" transform="translate(63.818359 -16.015625) scale(0.7)"/>
      <use xlink:href="#DejaVuSans-3d" transform="translate(111.088867 0.390625)"/>
      <use xlink:href="#DejaVuSans-30" transform="translate(194.87793 0.390625)"/>
      <use xlink:href="#DejaVuSans-2e" transform="translate(258.500977 0.390625)"/>
      <use xlink:href="#DejaVuSans-30" transform="translate(290.288086 0.390625)"/>
      <use xlink:href="#DejaVuSans-38" transform="translate(353.911133 0.390625)"/>
      <use xlink:href="#DejaVuSans-20" transform="translate(417.53418 0.390625)"/>
      <use xlink:href="#DejaVuSans-Oblique-67" transform="translate(449.321289 0.390625)"/>
      <use xlink:href="#DejaVuSans-20" transform="translate(512.797852 0.390625)"/>
      <use xlink:href="#DejaVuSans-Oblique-6b" transform="translate(544.584961 0.390625)"/>
      <use xlink:href="#DejaVuSans-Oblique-67" transform="translate(602.495117 0.390625)"/>
      <use xlink:href="#DejaVuSans-2212" transform="translate(684.259271 38.671875) scale(0.7)"/>
      <use xlink:href="#DejaVuSans-31" transform="translate(759.283685 0.390625)"/>
      <use xlink:href="#DejaVuSans-20" transform="translate(822.906732 0.390625)"/>
      <use xlink:href="#DejaVuSans-Oblique-64" transform="translate(854.693841 0.390625)"/>
      <use xlink:href="#DejaVuSans-Oblique-65" transform="translate(918.170404 0.390625)"/>
      <use xlink:href="#DejaVuSans-Oblique-63" transform="translate(979.693841 0.390625)"/>
      <use xlink:href="#DejaVuSans-2212" transform="translate(1052.961901 38.671875) scale(0.7)"/>
      <use xlink:href="#DejaVuSans-31" transform="translate(1127.986315 0.390625)"/>
     </g>
    </g>
    <g id="line2d_84">
     <path d="M 246.57875 404.760026 
L 257.07875 404.760026 
L 267.57875 404.760026 
" style="fill: none; stroke-dasharray: 5.55,2.4; stroke-dashoffset: 0; stroke: #0000ff; stroke-width: 1.5"/>
    </g>
    <g id="text_45">
     <!-- ERA5-Land -->
     <g transform="translate(275.97875 408.435026) scale(0.105 -0.105)">
      <use xlink:href="#DejaVuSans-45"/>
      <use xlink:href="#DejaVuSans-52" x="63.183594"/>
      <use xlink:href="#DejaVuSans-41" x="128.666016"/>
      <use xlink:href="#DejaVuSans-35" x="197.074219"/>
      <use xlink:href="#DejaVuSans-2d" x="260.697266"/>
      <use xlink:href="#DejaVuSans-4c" x="296.78125"/>
      <use xlink:href="#DejaVuSans-61" x="352.494141"/>
      <use xlink:href="#DejaVuSans-6e" x="413.773438"/>
      <use xlink:href="#DejaVuSans-64" x="477.152344"/>
     </g>
    </g>
   </g>
  </g>
 </g>
 <defs>
  <clipPath id="p3d36e21510">
   <rect x="61.56875" y="7.2" width="497.644" height="167.613333"/>
  </clipPath>
  <clipPath id="p12f80e0c3a">
   <rect x="61.56875" y="191.333333" width="497.644" height="167.613333"/>
  </clipPath>
  <clipPath id="p49cb215ab3">
   <rect x="61.56875" y="375.466667" width="497.644" height="167.613333"/>
  </clipPath>
 </defs>
</svg>
